# Utah Teapot Model
# Version: 1976 - Jim Blinn
# Triangle Mesh Resolution: 5 (1380 faces)
o Utah Teapot

v -1.5 0 2.1
v -1.5104 -0.144 2.0766
v -1.5352 -0.216 2.0208
v -1.5648 -0.216 1.9542
v -1.5896 -0.144 1.8984
v -1.6 0 1.875
v -2.04 0 2.0964
v -2.034093 -0.144 2.073188
v -2.020007 -0.2160001 2.017834
v -2.003194 -0.2160001 1.951766
v -1.989107 -0.144 1.896413
v -1.9832 0 1.8732
v -2.46 0 2.0712
v -2.442279 -0.144 2.049298
v -2.40002 -0.216 1.997069
v -2.349581 -0.216 1.934731
v -2.307322 -0.144 1.882502
v -2.2896 0 1.8606
v -2.76 0 2.0028
v -2.734458 -0.144 1.984455
v -2.673549 -0.216 1.940707
v -2.600851 -0.216 1.888493
v -2.539942 -0.144 1.844745
v -2.5144 0 1.8264
v -2.94 0 1.8696
v -2.910131 -0.144 1.858181
v -2.838906 -0.216 1.83095
v -2.753894 -0.216 1.79845
v -2.682669 -0.144 1.771219
v -2.6528 0 1.7598
v -3 0 1.65
v -2.9688 -0.144 1.65
v -2.8944 -0.216 1.65
v -2.8056 -0.216 1.65
v -2.7312 -0.144 1.65
v -2.7 0 1.65
v -1.5104 0.144 2.0766
v -1.5352 0.216 2.0208
v -1.5648 0.216 1.9542
v -1.5896 0.144 1.8984
v -2.034093 0.144 2.073188
v -2.020007 0.2160001 2.017834
v -2.003194 0.2160001 1.951766
v -1.989107 0.144 1.896413
v -2.442279 0.144 2.049298
v -2.40002 0.216 1.997069
v -2.349581 0.216 1.934731
v -2.307322 0.144 1.882502
v -2.734458 0.144 1.984455
v -2.673549 0.216 1.940707
v -2.600851 0.216 1.888493
v -2.539942 0.144 1.844745
v -2.910131 0.144 1.858181
v -2.838906 0.216 1.83095
v -2.753894 0.216 1.79845
v -2.682669 0.144 1.771219
v -2.9688 0.144 1.65
v -2.8944 0.216 1.65
v -2.8056 0.216 1.65
v -2.7312 0.144 1.65
v -2.9576 0 1.3848
v -2.928231 -0.144 1.395907
v -2.858196 -0.2160001 1.422394
v -2.774605 -0.2160001 1.454007
v -2.70457 -0.144 1.480493
v -2.6752 0 1.4916
v -2.8288 0 1.1304
v -2.804756 -0.144 1.148122
v -2.747418 -0.216 1.190381
v -2.678982 -0.216 1.240819
v -2.621645 -0.144 1.283078
v -2.5976 0 1.3008
v -2.6112 0 0.8885999
v -2.595725 -0.144 0.9105023
v -2.558823 -0.216 0.9627312
v -2.514777 -0.216 1.025069
v -2.477875 -0.144 1.077298
v -2.4624 0 1.0992
v -2.3024 0 0.6612
v -2.29849 -0.144 0.6869088
v -2.289165 -0.216 0.7482144
v -2.278035 -0.216 0.8213856
v -2.26871 -0.144 0.8826912
v -2.2648 0 0.9084
v -1.9 0 0.45
v -1.9104 -0.144 0.4812
v -1.9352 -0.216 0.5556
v -1.9648 -0.216 0.6444001
v -1.9896 -0.144 0.7188001
v -2 0 0.75
v -2.928231 0.144 1.395907
v -2.858196 0.2160001 1.422394
v -2.774605 0.2160001 1.454007
v -2.70457 0.144 1.480493
v -2.804756 0.144 1.148122
v -2.747418 0.216 1.190381
v -2.678982 0.216 1.240819
v -2.621645 0.144 1.283078
v -2.595725 0.144 0.9105023
v -2.558823 0.216 0.9627312
v -2.514777 0.216 1.025069
v -2.477875 0.144 1.077298
v -2.29849 0.144 0.6869088
v -2.289165 0.216 0.7482144
v -2.278035 0.216 0.8213856
v -2.26871 0.144 0.8826912
v -1.9104 0.144 0.4812
v -1.9352 0.216 0.5556
v -1.9648 0.216 0.6444001
v -1.9896 0.144 0.7188001
v 2.8 0 2.25
v 2.8416 -0.07200001 2.25
v 2.940801 -0.108 2.25
v 3.0592 -0.108 2.25
v 3.1584 -0.072 2.25
v 3.2 0 2.25
v 2.8376 0 2.286
v 2.888602 -0.07699201 2.287685
v 3.010221 -0.115488 2.291703
v 3.15538 -0.115488 2.296498
v 3.276999 -0.07699201 2.300515
v 3.328 0 2.3022
v 2.836801 0 2.304
v 2.896205 -0.08889601 2.306247
v 3.037863 -0.133344 2.311603
v 3.206938 -0.133344 2.317997
v 3.348596 -0.08889601 2.323354
v 3.408 0 2.3256
v 2.8072 0 2.304
v 2.872387 -0.103104 2.305965
v 3.027834 -0.154656 2.310653
v 3.213366 -0.154656 2.316247
v 3.368813 -0.103104 2.320934
v 3.434 0 2.3229
v 2.7584 0 2.286
v 2.825127 -0.115008 2.287123
v 2.984243 -0.172512 2.289802
v 3.174157 -0.172512 2.292998
v 3.333274 -0.115008 2.295677
v 3.4 0 2.2968
v 2.7 0 2.25
v 2.7624 -0.12 2.25
v 2.9112 -0.18 2.25
v 3.0888 -0.18 2.25
v 3.2376 -0.12 2.25
v 3.3 0 2.25
v 2.8416 0.07200001 2.25
v 2.940801 0.108 2.25
v 3.0592 0.108 2.25
v 3.1584 0.072 2.25
v 2.888602 0.07699201 2.287685
v 3.010221 0.115488 2.291703
v 3.15538 0.115488 2.296498
v 3.276999 0.07699201 2.300515
v 2.896205 0.08889601 2.306247
v 3.037863 0.133344 2.311603
v 3.206938 0.133344 2.317997
v 3.348596 0.08889601 2.323354
v 2.872387 0.103104 2.305965
v 3.027834 0.154656 2.310653
v 3.213366 0.154656 2.316247
v 3.368813 0.103104 2.320934
v 2.825127 0.115008 2.287123
v 2.984243 0.172512 2.289802
v 3.174157 0.172512 2.292998
v 3.333274 0.115008 2.295677
v 2.7624 0.12 2.25
v 2.9112 0.18 2.25
v 3.0888 0.18 2.25
v 3.2376 0.12 2.25
v 2.5288 0 2.0334
v 2.569735 -0.1404672 2.023728
v 2.667347 -0.2107008 2.000664
v 2.783853 -0.2107008 1.973136
v 2.881466 -0.1404672 1.950072
v 2.9224 0 1.9404
v 2.4344 0 1.7772
v 2.467348 -0.1892736 1.750368
v 2.545914 -0.2839105 1.686384
v 2.639686 -0.2839104 1.610016
v 2.718253 -0.1892736 1.546032
v 2.7512 0 1.5192
v 2.3256 0 1.5318
v 2.355053 -0.2475264 1.484064
v 2.425287 -0.3712896 1.370232
v 2.509114 -0.3712896 1.234368
v 2.579347 -0.2475264 1.120536
v 2.6088 0 1.0728
v 2.1112 0 1.3476
v 2.132666 -0.2963328 1.27896
v 2.183853 -0.4444993 1.11528
v 2.244947 -0.4444992 0.9199199
v 2.296134 -0.2963328 0.7562399
v 2.3176 0 0.6876
v 1.7 0 1.275
v 1.7 -0.3168 1.1892
v 1.7 -0.4752001 0.9846001
v 1.7 -0.4752 0.7404001
v 1.7 -0.3168 0.5358
v 1.7 0 0.45
v 2.569735 0.1404672 2.023728
v 2.667347 0.2107008 2.000664
v 2.783853 0.2107008 1.973136
v 2.881466 0.1404672 1.950072
v 2.467348 0.1892736 1.750368
v 2.545914 0.2839105 1.686384
v 2.639686 0.2839104 1.610016
v 2.718253 0.1892736 1.546032
v 2.355053 0.2475264 1.484064
v 2.425287 0.3712896 1.370232
v 2.509114 0.3712896 1.234368
v 2.579347 0.2475264 1.120536
v 2.132666 0.2963328 1.27896
v 2.183853 0.4444993 1.11528
v 2.244947 0.4444992 0.9199199
v 2.296134 0.2963328 0.7562399
v 1.7 0.3168 1.1892
v 1.7 0.4752001 0.9846001
v 1.7 0.4752 0.7404001
v 1.7 0.3168 0.5358
v 0 0 3
v -0.3088 0 2.9676
v -0.2933596 -0.09881447 2.9676
v -0.2501269 -0.1837343 2.967601
v -0.1837343 -0.2501269 2.9676
v -0.09881447 -0.2933596 2.9676
v 0 -0.3088 2.9676
v -0.3584 0 2.8848
v -0.340477 -0.1146757 2.8848
v -0.2902948 -0.2132342 2.8848
v -0.2132342 -0.2902948 2.8848
v -0.1146757 -0.340477 2.8848
v 0 -0.3584 2.8848
v -0.2736 0 2.7732
v -0.2599096 -0.08751053 2.7732
v -0.2215849 -0.1627454 2.773201
v -0.1627453 -0.2215849 2.7732
v -0.08751053 -0.2599096 2.7732
v 0 -0.2736 2.7732
v -0.1792 0 2.6544
v -0.1702154 -0.05724569 2.6544
v -0.1450783 -0.1065134 2.6544
v -0.1065134 -0.1450783 2.6544
v -0.05724569 -0.1702154 2.6544
v 0 -0.1792 2.6544
v -0.2 0 2.55
v -0.189952 -0.063808 2.55
v -0.161856 -0.118784 2.55
v -0.118784 -0.161856 2.55
v -0.06380799 -0.189952 2.55
v 0 -0.2 2.55
v 0.09881447 -0.2933596 2.9676
v 0.1837343 -0.2501269 2.967601
v 0.2501269 -0.1837343 2.9676
v 0.2933596 -0.09881447 2.9676
v 0.3088 0 2.9676
v 0.1146757 -0.340477 2.8848
v 0.2132342 -0.2902948 2.8848
v 0.2902948 -0.2132342 2.8848
v 0.340477 -0.1146757 2.8848
v 0.3584 0 2.8848
v 0.08751053 -0.2599096 2.7732
v 0.1627454 -0.2215849 2.773201
v 0.2215849 -0.1627453 2.7732
v 0.2599096 -0.08751053 2.7732
v 0.2736 0 2.7732
v 0.05724569 -0.1702154 2.6544
v 0.1065134 -0.1450783 2.6544
v 0.1450783 -0.1065134 2.6544
v 0.1702154 -0.05724569 2.6544
v 0.1792 0 2.6544
v 0.063808 -0.189952 2.55
v 0.118784 -0.161856 2.55
v 0.161856 -0.118784 2.55
v 0.189952 -0.06380799 2.55
v 0.2 0 2.55
v 0 0.3088 2.9676
v 0.09881447 0.2933596 2.9676
v 0.1837343 0.2501269 2.967601
v 0.2501269 0.1837343 2.9676
v 0.2933596 0.09881447 2.9676
v 0 0.3584 2.8848
v 0.1146757 0.340477 2.8848
v 0.2132342 0.2902948 2.8848
v 0.2902948 0.2132342 2.8848
v 0.340477 0.1146757 2.8848
v 0 0.2736 2.7732
v 0.08751053 0.2599096 2.7732
v 0.1627454 0.2215849 2.773201
v 0.2215849 0.1627453 2.7732
v 0.2599096 0.08751053 2.7732
v 0 0.1792 2.6544
v 0.05724569 0.1702154 2.6544
v 0.1065134 0.1450783 2.6544
v 0.1450783 0.1065134 2.6544
v 0.1702154 0.05724569 2.6544
v 0 0.2 2.55
v 0.063808 0.189952 2.55
v 0.118784 0.161856 2.55
v 0.161856 0.118784 2.55
v 0.189952 0.06380799 2.55
v -0.2933596 0.09881447 2.9676
v -0.2501269 0.1837343 2.967601
v -0.1837343 0.2501269 2.9676
v -0.09881447 0.2933596 2.9676
v -0.340477 0.1146757 2.8848
v -0.2902948 0.2132342 2.8848
v -0.2132342 0.2902948 2.8848
v -0.1146757 0.340477 2.8848
v -0.2599096 0.08751053 2.7732
v -0.2215849 0.1627454 2.773201
v -0.1627453 0.2215849 2.7732
v -0.08751053 0.2599096 2.7732
v -0.1702154 0.05724569 2.6544
v -0.1450783 0.1065134 2.6544
v -0.1065134 0.1450783 2.6544
v -0.05724569 0.1702154 2.6544
v -0.189952 0.063808 2.55
v -0.161856 0.118784 2.55
v -0.118784 0.161856 2.55
v -0.06380799 0.189952 2.55
v -0.3912 0 2.4756
v -0.3715461 -0.1248085 2.4756
v -0.3165904 -0.2323415 2.4756
v -0.2323415 -0.3165904 2.4756
v -0.1248085 -0.3715461 2.4756
v 0 -0.3912 2.4756
v -0.6736 0 2.4228
v -0.6397583 -0.2149054 2.4228
v -0.5451311 -0.4000646 2.422801
v -0.4000645 -0.5451311 2.4228
v -0.2149053 -0.6397583 2.4228
v 0 -0.6736 2.4228
v -0.9704 0 2.3772
v -0.9216471 -0.3095964 2.3772
v -0.7853253 -0.57634 2.377201
v -0.5763399 -0.7853253 2.3772
v -0.3095964 -0.9216471 2.3772
v 0 -0.9704 2.3772
v -1.2048 0 2.3244
v -1.144271 -0.3843794 2.3244
v -0.9750206 -0.7155548 2.3244
v -0.7155547 -0.9750205 2.3244
v -0.3843794 -1.144271 2.3244
v 0 -1.2048 2.3244
v -1.3 0 2.25
v -1.234688 -0.414752 2.25
v -1.052064 -0.772096 2.25
v -0.7720959 -1.052064 2.25
v -0.4147519 -1.234688 2.25
v 0 -1.3 2.25
v 0.1248085 -0.3715461 2.4756
v 0.2323415 -0.3165904 2.4756
v 0.3165904 -0.2323415 2.4756
v 0.3715461 -0.1248085 2.4756
v 0.3912 0 2.4756
v 0.2149054 -0.6397583 2.4228
v 0.4000646 -0.5451311 2.422801
v 0.5451311 -0.4000645 2.4228
v 0.6397583 -0.2149053 2.4228
v 0.6736 0 2.4228
v 0.3095964 -0.9216471 2.3772
v 0.57634 -0.7853253 2.377201
v 0.7853253 -0.5763399 2.3772
v 0.9216471 -0.3095964 2.3772
v 0.9704 0 2.3772
v 0.3843794 -1.144271 2.3244
v 0.7155548 -0.9750206 2.3244
v 0.9750205 -0.7155547 2.3244
v 1.144271 -0.3843794 2.3244
v 1.2048 0 2.3244
v 0.414752 -1.234688 2.25
v 0.772096 -1.052064 2.25
v 1.052064 -0.7720959 2.25
v 1.234688 -0.4147519 2.25
v 1.3 0 2.25
v 0 0.3912 2.4756
v 0.1248085 0.3715461 2.4756
v 0.2323415 0.3165904 2.4756
v 0.3165904 0.2323415 2.4756
v 0.3715461 0.1248085 2.4756
v 0 0.6736 2.4228
v 0.2149054 0.6397583 2.4228
v 0.4000646 0.5451311 2.422801
v 0.5451311 0.4000645 2.4228
v 0.6397583 0.2149053 2.4228
v 0 0.9704 2.3772
v 0.3095964 0.9216471 2.3772
v 0.57634 0.7853253 2.377201
v 0.7853253 0.5763399 2.3772
v 0.9216471 0.3095964 2.3772
v 0 1.2048 2.3244
v 0.3843794 1.144271 2.3244
v 0.7155548 0.9750206 2.3244
v 0.9750205 0.7155547 2.3244
v 1.144271 0.3843794 2.3244
v 0 1.3 2.25
v 0.414752 1.234688 2.25
v 0.772096 1.052064 2.25
v 1.052064 0.7720959 2.25
v 1.234688 0.4147519 2.25
v -0.3715461 0.1248085 2.4756
v -0.3165904 0.2323415 2.4756
v -0.2323415 0.3165904 2.4756
v -0.1248085 0.3715461 2.4756
v -0.6397583 0.2149054 2.4228
v -0.5451311 0.4000646 2.422801
v -0.4000645 0.5451311 2.4228
v -0.2149053 0.6397583 2.4228
v -0.9216471 0.3095964 2.3772
v -0.7853253 0.57634 2.377201
v -0.5763399 0.7853253 2.3772
v -0.3095964 0.9216471 2.3772
v -1.144271 0.3843794 2.3244
v -0.9750206 0.7155548 2.3244
v -0.7155547 0.9750205 2.3244
v -0.3843794 1.144271 2.3244
v -1.234688 0.414752 2.25
v -1.052064 0.772096 2.25
v -0.7720959 1.052064 2.25
v -0.4147519 1.234688 2.25
v -1.4 0 2.25
v -1.329664 -0.446656 2.25
v -1.132992 -0.8314881 2.25
v -0.8314879 -1.132992 2.25
v -0.4466559 -1.329664 2.25
v 0 -1.4 2.25
v -1.3804 0 2.313
v -1.311049 -0.4404029 2.313
v -1.11713 -0.8198473 2.313
v -0.8198472 -1.11713 2.313
v -0.4404027 -1.311049 2.313
v 0 -1.3804 2.313
v -1.3902 0 2.3445
v -1.320357 -0.4435295 2.3445
v -1.125061 -0.8256677 2.344501
v -0.8256676 -1.125061 2.3445
v -0.4435294 -1.320356 2.3445
v 0 -1.3902 2.3445
v -1.4198 0 2.3445
v -1.348469 -0.452973 2.3445
v -1.149016 -0.8432477 2.344501
v -0.8432475 -1.149016 2.3445
v -0.452973 -1.348469 2.3445
v 0 -1.4198 2.3445
v -1.4596 0 2.313
v -1.38627 -0.4656708 2.313
v -1.181225 -0.8668857 2.313
v -0.8668855 -1.181225 2.313
v -0.4656708 -1.38627 2.313
v 0 -1.4596 2.313
v -1.5 0 2.25
v -1.42464 -0.47856 2.25
v -1.21392 -0.8908801 2.25
v -0.8908799 -1.21392 2.25
v -0.47856 -1.42464 2.25
v 0 -1.5 2.25
v 0.446656 -1.329664 2.25
v 0.8314881 -1.132992 2.25
v 1.132992 -0.8314879 2.25
v 1.329664 -0.4466559 2.25
v 1.4 0 2.25
v 0.4404029 -1.311049 2.313
v 0.8198473 -1.11713 2.313
v 1.11713 -0.8198472 2.313
v 1.311049 -0.4404027 2.313
v 1.3804 0 2.313
v 0.4435295 -1.320357 2.3445
v 0.8256677 -1.125061 2.344501
v 1.125061 -0.8256676 2.3445
v 1.320356 -0.4435294 2.3445
v 1.3902 0 2.3445
v 0.452973 -1.348469 2.3445
v 0.8432477 -1.149016 2.344501
v 1.149016 -0.8432475 2.3445
v 1.348469 -0.452973 2.3445
v 1.4198 0 2.3445
v 0.4656708 -1.38627 2.313
v 0.8668857 -1.181225 2.313
v 1.181225 -0.8668855 2.313
v 1.38627 -0.4656708 2.313
v 1.4596 0 2.313
v 0.47856 -1.42464 2.25
v 0.8908801 -1.21392 2.25
v 1.21392 -0.8908799 2.25
v 1.42464 -0.47856 2.25
v 1.5 0 2.25
v 0 1.4 2.25
v 0.446656 1.329664 2.25
v 0.8314881 1.132992 2.25
v 1.132992 0.8314879 2.25
v 1.329664 0.4466559 2.25
v 0 1.3804 2.313
v 0.4404029 1.311049 2.313
v 0.8198473 1.11713 2.313
v 1.11713 0.8198472 2.313
v 1.311049 0.4404027 2.313
v 0 1.3902 2.3445
v 0.4435295 1.320357 2.3445
v 0.8256677 1.125061 2.344501
v 1.125061 0.8256676 2.3445
v 1.320356 0.4435294 2.3445
v 0 1.4198 2.3445
v 0.452973 1.348469 2.3445
v 0.8432477 1.149016 2.344501
v 1.149016 0.8432475 2.3445
v 1.348469 0.452973 2.3445
v 0 1.4596 2.313
v 0.4656708 1.38627 2.313
v 0.8668857 1.181225 2.313
v 1.181225 0.8668855 2.313
v 1.38627 0.4656708 2.313
v 0 1.5 2.25
v 0.47856 1.42464 2.25
v 0.8908801 1.21392 2.25
v 1.21392 0.8908799 2.25
v 1.42464 0.47856 2.25
v -1.329664 0.446656 2.25
v -1.132992 0.8314881 2.25
v -0.8314879 1.132992 2.25
v -0.4466559 1.329664 2.25
v -1.311049 0.4404029 2.313
v -1.11713 0.8198473 2.313
v -0.8198472 1.11713 2.313
v -0.4404027 1.311049 2.313
v -1.320357 0.4435295 2.3445
v -1.125061 0.8256677 2.344501
v -0.8256676 1.125061 2.3445
v -0.4435294 1.320356 2.3445
v -1.348469 0.452973 2.3445
v -1.149016 0.8432477 2.344501
v -0.8432475 1.149016 2.3445
v -0.452973 1.348469 2.3445
v -1.38627 0.4656708 2.313
v -1.181225 0.8668857 2.313
v -0.8668855 1.181225 2.313
v -0.4656708 1.38627 2.313
v -1.42464 0.47856 2.25
v -1.21392 0.8908801 2.25
v -0.8908799 1.21392 2.25
v -0.47856 1.42464 2.25
v -1.648 0 1.9356
v -1.565205 -0.525778 1.9356
v -1.333694 -0.9787803 1.9356
v -0.97878 -1.333694 1.9356
v -0.525778 -1.565205 1.9356
v 0 -1.648 1.9356
v -1.784 0 1.6248
v -1.694372 -0.5691674 1.6248
v -1.443756 -1.059554 1.6248
v -1.059553 -1.443756 1.6248
v -0.5691674 -1.694372 1.6248
v 0 -1.784 1.6248
v -1.896 0 1.3212
v -1.800745 -0.6048998 1.3212
v -1.534395 -1.126072 1.3212
v -1.126072 -1.534395 1.3212
v -0.6048998 -1.800745 1.3212
v 0 -1.896 1.3212
v -1.972 0 1.0284
v -1.872927 -0.6291468 1.0284
v -1.5959 -1.17121 1.0284
v -1.17121 -1.5959 1.0284
v -0.6291469 -1.872927 1.0284
v 0 -1.972 1.0284
v -2 0 0.75
v -1.89952 -0.6380799 0.7500001
v -1.61856 -1.18784 0.7500001
v -1.18784 -1.61856 0.75
v -0.63808 -1.89952 0.75
v 0 -2 0.75
v 0.525778 -1.565205 1.9356
v 0.9787803 -1.333694 1.9356
v 1.333694 -0.97878 1.9356
v 1.565205 -0.525778 1.9356
v 1.648 0 1.9356
v 0.5691674 -1.694372 1.6248
v 1.059554 -1.443756 1.6248
v 1.443756 -1.059553 1.6248
v 1.694372 -0.5691674 1.6248
v 1.784 0 1.6248
v 0.6048998 -1.800745 1.3212
v 1.126072 -1.534395 1.3212
v 1.534395 -1.126072 1.3212
v 1.800745 -0.6048998 1.3212
v 1.896 0 1.3212
v 0.6291468 -1.872927 1.0284
v 1.17121 -1.5959 1.0284
v 1.5959 -1.17121 1.0284
v 1.872927 -0.6291469 1.0284
v 1.972 0 1.0284
v 0.6380799 -1.89952 0.7500001
v 1.18784 -1.61856 0.7500001
v 1.61856 -1.18784 0.75
v 1.89952 -0.63808 0.75
v 2 0 0.75
v 0 1.648 1.9356
v 0.525778 1.565205 1.9356
v 0.9787803 1.333694 1.9356
v 1.333694 0.97878 1.9356
v 1.565205 0.525778 1.9356
v 0 1.784 1.6248
v 0.5691674 1.694372 1.6248
v 1.059554 1.443756 1.6248
v 1.443756 1.059553 1.6248
v 1.694372 0.5691674 1.6248
v 0 1.896 1.3212
v 0.6048998 1.800745 1.3212
v 1.126072 1.534395 1.3212
v 1.534395 1.126072 1.3212
v 1.800745 0.6048998 1.3212
v 0 1.972 1.0284
v 0.6291468 1.872927 1.0284
v 1.17121 1.5959 1.0284
v 1.5959 1.17121 1.0284
v 1.872927 0.6291469 1.0284
v 0 2 0.75
v 0.6380799 1.89952 0.7500001
v 1.18784 1.61856 0.7500001
v 1.61856 1.18784 0.75
v 1.89952 0.63808 0.75
v -1.565205 0.525778 1.9356
v -1.333694 0.9787803 1.9356
v -0.97878 1.333694 1.9356
v -0.525778 1.565205 1.9356
v -1.694372 0.5691674 1.6248
v -1.443756 1.059554 1.6248
v -1.059553 1.443756 1.6248
v -0.5691674 1.694372 1.6248
v -1.800745 0.6048998 1.3212
v -1.534395 1.126072 1.3212
v -1.126072 1.534395 1.3212
v -0.6048998 1.800745 1.3212
v -1.872927 0.6291468 1.0284
v -1.5959 1.17121 1.0284
v -1.17121 1.5959 1.0284
v -0.6291469 1.872927 1.0284
v -1.89952 0.6380799 0.7500001
v -1.61856 1.18784 0.7500001
v -1.18784 1.61856 0.75
v -0.63808 1.89952 0.75
v -1.948 0 0.5064001
v -1.850133 -0.6214899 0.5064001
v -1.576478 -1.156956 0.5064001
v -1.156956 -1.576478 0.5064001
v -0.6214899 -1.850133 0.5064001
v 0 -1.948 0.5064001
v -1.824 0 0.3132001
v -1.732363 -0.581929 0.3132001
v -1.476127 -1.08331 0.3132001
v -1.08331 -1.476127 0.3132001
v -0.581929 -1.732362 0.3132001
v 0 -1.824 0.3132001
v -1.676 0 0.1668
v -1.591798 -0.534711 0.1668
v -1.356353 -0.9954101 0.1668
v -0.9954098 -1.356353 0.1668
v -0.534711 -1.591798 0.1668
v 0 -1.676 0.1668
v -1.552 0 0.06359999
v -1.474028 -0.49515 0.06360002
v -1.256003 -0.9217639 0.06360002
v -0.9217637 -1.256003 0.06359999
v -0.4951501 -1.474027 0.06359999
v 0 -1.552 0.06359999
v -1.5 0 0
v -1.42464 -0.47856 0
v -1.21392 -0.8908801 1.117587e-8
v -0.8908799 -1.21392 0
v -0.47856 -1.42464 0
v 0 -1.5 0
v 0.6214899 -1.850133 0.5064001
v 1.156956 -1.576478 0.5064001
v 1.576478 -1.156956 0.5064001
v 1.850133 -0.6214899 0.5064001
v 1.948 0 0.5064001
v 0.581929 -1.732363 0.3132001
v 1.08331 -1.476127 0.3132001
v 1.476127 -1.08331 0.3132001
v 1.732362 -0.581929 0.3132001
v 1.824 0 0.3132001
v 0.534711 -1.591798 0.1668
v 0.9954101 -1.356353 0.1668
v 1.356353 -0.9954098 0.1668
v 1.591798 -0.534711 0.1668
v 1.676 0 0.1668
v 0.49515 -1.474028 0.06360002
v 0.9217639 -1.256003 0.06360002
v 1.256003 -0.9217637 0.06359999
v 1.474027 -0.4951501 0.06359999
v 1.552 0 0.06359999
v 0.47856 -1.42464 0
v 0.8908801 -1.21392 1.117587e-8
v 1.21392 -0.8908799 0
v 1.42464 -0.47856 0
v 1.5 0 0
v 0 1.948 0.5064001
v 0.6214899 1.850133 0.5064001
v 1.156956 1.576478 0.5064001
v 1.576478 1.156956 0.5064001
v 1.850133 0.6214899 0.5064001
v 0 1.824 0.3132001
v 0.581929 1.732363 0.3132001
v 1.08331 1.476127 0.3132001
v 1.476127 1.08331 0.3132001
v 1.732362 0.581929 0.3132001
v 0 1.676 0.1668
v 0.534711 1.591798 0.1668
v 0.9954101 1.356353 0.1668
v 1.356353 0.9954098 0.1668
v 1.591798 0.534711 0.1668
v 0 1.552 0.06359999
v 0.49515 1.474028 0.06360002
v 0.9217639 1.256003 0.06360002
v 1.256003 0.9217637 0.06359999
v 1.474027 0.4951501 0.06359999
v 0 1.5 0
v 0.47856 1.42464 0
v 0.8908801 1.21392 1.117587e-8
v 1.21392 0.8908799 0
v 1.42464 0.47856 0
v -1.850133 0.6214899 0.5064001
v -1.576478 1.156956 0.5064001
v -1.156956 1.576478 0.5064001
v -0.6214899 1.850133 0.5064001
v -1.732363 0.581929 0.3132001
v -1.476127 1.08331 0.3132001
v -1.08331 1.476127 0.3132001
v -0.581929 1.732362 0.3132001
v -1.591798 0.534711 0.1668
v -1.356353 0.9954101 0.1668
v -0.9954098 1.356353 0.1668
v -0.534711 1.591798 0.1668
v -1.474028 0.49515 0.06360002
v -1.256003 0.9217639 0.06360002
v -0.9217637 1.256003 0.06359999
v -0.4951501 1.474027 0.06359999
v -1.42464 0.47856 0
v -1.21392 0.8908801 1.117587e-8
v -0.8908799 1.21392 0
v -0.47856 1.42464 0

vn 0 0 1
vn 0 -0.4705881 0.882353
vn 0 -0.9230769 0.3846155
vn 0 -0.9230768 -0.3846155
vn 0 -0.4705881 -0.882353
vn 0 0 -1
vn -0.0299865 0 0.9995503
vn -0.02585217 -0.4695314 0.8825372
vn -0.01057192 -0.9226406 0.3855162
vn 0.009555425 -0.922581 -0.3856852
vn 0.01951798 -0.4690994 -0.8829297
vn 0.02082881 0 -0.999783
vn -0.1579905 0 0.9874406
vn -0.1355415 -0.4750837 0.8694389
vn -0.05486912 -0.924141 0.378091
vn 0.04954984 -0.923274 -0.380933
vn 0.1010461 -0.4686902 -0.8775644
vn 0.1074818 0 -0.994207
vn -0.4751489 0 0.8799054
vn -0.4032999 -0.4972805 0.7681544
vn -0.1595254 -0.9310304 0.3282288
vn 0.1470194 -0.9288208 -0.3401135
vn 0.3115984 -0.4791539 -0.8205596
vn 0.334765 0 -0.9423017
vn -0.886914 0 0.4619344
vn -0.7644789 -0.4971384 0.4103968
vn -0.3127476 -0.9321637 0.1823729
vn 0.3033164 -0.9315833 -0.2003789
vn 0.694247 -0.491348 -0.5259261
vn 0.7761139 0 -0.6305927
vn -1 0 0
vn -0.8823529 -0.4705881 0
vn -0.3846155 -0.9230769 0
vn 0.3846155 -0.9230769 0
vn 0.8823531 -0.4705882 0
vn 1 0 0
vn 0 0.4705881 0.882353
vn 0 0.9230769 0.3846155
vn 0 0.9230768 -0.3846155
vn 0 0.4705881 -0.882353
vn -0.02585217 0.4695314 0.8825372
vn -0.01057192 0.9226406 0.3855162
vn 0.009555425 0.922581 -0.3856852
vn 0.01951798 0.4690994 -0.8829297
vn -0.1355415 0.4750837 0.8694389
vn -0.05486912 0.924141 0.378091
vn 0.04954984 0.923274 -0.380933
vn 0.1010461 0.4686902 -0.8775644
vn -0.4032999 0.4972805 0.7681544
vn -0.1595254 0.9310304 0.3282288
vn 0.1470194 0.9288208 -0.3401135
vn 0.3115984 0.4791539 -0.8205596
vn -0.7644789 0.4971384 0.4103968
vn -0.3127476 0.9321637 0.1823729
vn 0.3033164 0.9315833 -0.2003789
vn 0.694247 0.491348 -0.5259261
vn -0.8823529 0.4705881 0
vn -0.3846155 0.9230769 0
vn 0.3846155 0.9230769 0
vn 0.8823531 0.4705882 0
vn -0.9711227 0 -0.2385803
vn -0.8522431 -0.4803348 -0.2072681
vn -0.3663639 -0.9264261 -0.08667217
vn 0.3678415 -0.9261334 0.08348517
vn 0.8583449 -0.4780761 0.1862453
vn 0.9782341 0 0.2075042
vn -0.8865849 0 -0.462566
vn -0.7803017 -0.4817858 -0.3987625
vn -0.3394347 -0.9261943 -0.1641593
vn 0.3474068 -0.9247712 0.155264
vn 0.8155634 -0.4710003 0.3361773
vn 0.9296273 0 0.368501
vn -0.7660517 0 -0.642779
vn -0.685922 -0.46207 -0.5621409
vn -0.3142652 -0.917947 -0.2420966
vn 0.3294793 -0.9150288 0.2327354
vn 0.7526752 -0.4424839 0.4875326
vn 0.8492853 0 0.5279342
vn -0.6360726 0 -0.7716292
vn -0.57667 -0.4413821 -0.6874836
vn -0.2751631 -0.9089117 -0.3133126
vn 0.290585 -0.9051917 0.3101425
vn 0.6419517 -0.4191253 0.6420529
vn 0.7179003 0 0.696146
vn -0.5144956 0 -0.857493
vn -0.4567855 -0.460169 -0.761309
vn -0.2027397 -0.9190868 -0.3378996
vn 0.2027398 -0.9190867 0.3378996
vn 0.4567853 -0.4601691 0.7613091
vn 0.5144957 0 0.8574929
vn -0.8522431 0.4803348 -0.2072681
vn -0.3663639 0.9264261 -0.08667217
vn 0.3678415 0.9261334 0.08348517
vn 0.8583449 0.4780761 0.1862453
vn -0.7803017 0.4817858 -0.3987625
vn -0.3394347 0.9261943 -0.1641593
vn 0.3474068 0.9247712 0.155264
vn 0.8155634 0.4710003 0.3361773
vn -0.685922 0.46207 -0.5621409
vn -0.3142652 0.917947 -0.2420966
vn 0.3294793 0.9150288 0.2327354
vn 0.7526752 0.4424839 0.4875326
vn -0.57667 0.4413821 -0.6874836
vn -0.2751631 0.9089117 -0.3133126
vn 0.290585 0.9051917 0.3101425
vn 0.6419517 0.4191253 0.6420529
vn -0.4567855 0.460169 -0.761309
vn -0.2027397 0.9190868 -0.3378996
vn 0.2027398 0.9190867 0.3378996
vn 0.4567853 0.4601691 0.7613091
vn 0.7071059 0 -0.7071076
vn 0.4862046 0.6914912 -0.5342706
vn 0.1513619 0.9687165 -0.1966671
vn -0.150451 0.9628863 0.2240856
vn -0.4209574 0.5986951 0.681439
vn -0.5144954 0 0.8574931
vn 0.9061826 0 -0.4228864
vn 0.5214164 0.8390703 -0.1551964
vn 0.1247846 0.9750177 0.1837644
vn -0.1387798 0.8591068 0.4926212
vn -0.3477716 0.5105971 0.7863495
vn -0.42853 0 0.9035276
vn 0.5812379 0 0.8137337
vn 0.2757149 0.5205509 0.8080891
vn 0.02747248 0.5216137 0.8527395
vn -0.1016183 0.4147072 0.9042631
vn -0.1948642 0.2416979 0.9505841
vn -0.2374532 0 0.9713989
vn -0.2821661 0 0.9593656
vn -0.2188126 -0.2820915 0.9341015
vn -0.1037277 -0.4813815 0.8703519
vn 0.06482539 -0.66379 0.7451044
vn 0.4862878 -0.7812927 0.3912876
vn 0.9887153 0 -0.1498067
vn -0.5462675 0 0.8376108
vn -0.3991388 -0.5464331 0.7362738
vn -0.1441181 -0.8541296 0.4996925
vn 0.1509902 -0.9840053 0.09452724
vn 0.4923664 -0.6860061 -0.5356967
vn 0.5976647 0 -0.8017462
vn -0.7071068 0 0.7071068
vn -0.509555 -0.6522303 0.5612035
vn -0.1668305 -0.9609436 0.2208053
vn 0.1652861 -0.9520476 -0.2574603
vn 0.4211391 -0.5390579 -0.7294233
vn 0.4856427 0 -0.8741574
vn 0.4862046 -0.6914912 -0.5342706
vn 0.1513619 -0.9687165 -0.1966671
vn -0.150451 -0.9628863 0.2240856
vn -0.4209574 -0.5986951 0.681439
vn 0.5214164 -0.8390703 -0.1551964
vn 0.1247846 -0.9750177 0.1837644
vn -0.1387798 -0.8591068 0.4926212
vn -0.3477716 -0.5105971 0.7863495
vn 0.2757149 -0.5205509 0.8080891
vn 0.02747248 -0.5216137 0.8527395
vn -0.1016183 -0.4147072 0.9042631
vn -0.1948642 -0.2416979 0.9505841
vn -0.2188126 0.2820915 0.9341015
vn -0.1037277 0.4813815 0.8703519
vn 0.06482539 0.66379 0.7451044
vn 0.4862878 0.7812927 0.3912876
vn -0.3991388 0.5464331 0.7362738
vn -0.1441181 0.8541296 0.4996925
vn 0.1509902 0.9840053 0.09452724
vn 0.4923664 0.6860061 -0.5356967
vn -0.509555 0.6522303 0.5612035
vn -0.1668305 0.9609436 0.2208053
vn 0.1652861 0.9520476 -0.2574603
vn 0.4211391 0.5390579 -0.7294233
vn -0.9407992 0 0.3389645
vn -0.7258358 -0.5976331 0.3405834
vn -0.2211559 -0.9477403 0.2299531
vn 0.2930282 -0.9560516 -0.009989331
vn 0.7399063 -0.5996571 -0.3048774
vn 0.9003212 0 -0.4352263
vn -0.9701425 0 0.2425357
vn -0.8301934 -0.4842384 0.2762105
vn -0.2306428 -0.943434 0.2381936
vn 0.4910515 -0.8703645 0.03652383
vn 0.8830006 -0.4461677 -0.1457545
vn 0.9780889 0 -0.2081877
vn -0.897303 0 0.4414153
vn -0.752976 -0.4949914 0.433602
vn -0.1485979 -0.9525443 0.2656652
vn 0.539362 -0.8408372 -0.04562199
vn 0.874736 -0.4147975 -0.2505596
vn 0.9506533 0 -0.3102552
vn -0.522562 0 0.8526013
vn -0.3944123 -0.5996717 0.6962994
vn -0.0534667 -0.9617683 0.2685947
vn 0.3173286 -0.9276824 -0.1967435
vn 0.6157255 -0.5435062 -0.5705113
vn 0.7149628 0 -0.6991625
vn 0 0 1
vn -0.02448763 -0.6641645 0.7471852
vn -0.02379602 -0.9698678 0.242467
vn 0.03849181 -0.9694235 -0.242356
vn 0.1474102 -0.6571058 -0.7392443
vn 0.2095291 0 -0.9778025
vn -0.7258358 0.5976331 0.3405834
vn -0.2211559 0.9477403 0.2299531
vn 0.2930282 0.9560516 -0.009989331
vn 0.7399063 0.5996571 -0.3048774
vn -0.8301934 0.4842384 0.2762105
vn -0.2306428 0.943434 0.2381936
vn 0.4910515 0.8703645 0.03652383
vn 0.8830006 0.4461677 -0.1457545
vn -0.752976 0.4949914 0.433602
vn -0.1485979 0.9525443 0.2656652
vn 0.539362 0.8408372 -0.04562199
vn 0.874736 0.4147975 -0.2505596
vn -0.3944123 0.5996717 0.6962994
vn -0.0534667 0.9617683 0.2685947
vn 0.3173286 0.9276824 -0.1967435
vn 0.6157255 0.5435062 -0.5705113
vn -0.02448763 0.6641645 0.7471852
vn -0.02379602 0.9698678 0.242467
vn 0.03849181 0.9694235 -0.242356
vn 0.1474102 0.6571058 -0.7392443
vn 0 0 1
vn -0.4579565 0 0.8889746
vn -0.4347158 -0.1412845 0.8894159
vn -0.3689065 -0.2682967 0.8899016
vn -0.2682968 -0.3689065 0.8899016
vn -0.1412846 -0.4347161 0.8894158
vn 0 -0.4579565 0.8889746
vn -0.961524 0 -0.2747212
vn -0.9142463 -0.2971723 -0.2753948
vn -0.7772744 -0.5653169 -0.2761545
vn -0.5653169 -0.7772744 -0.2761545
vn -0.2971724 -0.9142464 -0.2753946
vn 0 -0.961524 -0.2747212
vn -0.8203982 0 -0.5717927
vn -0.7795053 -0.2535383 -0.5727912
vn -0.66223 -0.481746 -0.5739096
vn -0.481746 -0.6622301 -0.5739094
vn -0.2535384 -0.7795054 -0.572791
vn 0 -0.8203982 -0.5717927
vn -0.9363291 0 -0.3511234
vn -0.8898625 -0.2901488 -0.3520773
vn -0.7563397 -0.5506536 -0.3531724
vn -0.5506536 -0.7563398 -0.3531722
vn -0.2901488 -0.8898625 -0.3520772
vn 0 -0.9363291 -0.3511234
vn -0.7071068 0 0.7071067
vn -0.6714701 -0.2195191 0.7077707
vn -0.5703877 -0.4156313 0.708455
vn -0.4156316 -0.5703881 0.7084546
vn -0.219519 -0.67147 0.7077707
vn 0 -0.7071068 0.7071067
vn 0.1412845 -0.4347158 0.8894159
vn 0.2682967 -0.3689065 0.8899016
vn 0.3689065 -0.2682968 0.8899016
vn 0.4347161 -0.1412846 0.8894158
vn 0.4579565 0 0.8889746
vn 0.2971723 -0.9142463 -0.2753948
vn 0.5653169 -0.7772744 -0.2761545
vn 0.7772744 -0.5653169 -0.2761545
vn 0.9142464 -0.2971724 -0.2753946
vn 0.961524 0 -0.2747212
vn 0.2535383 -0.7795053 -0.5727912
vn 0.481746 -0.66223 -0.5739096
vn 0.6622301 -0.481746 -0.5739094
vn 0.7795054 -0.2535384 -0.572791
vn 0.8203982 0 -0.5717927
vn 0.2901488 -0.8898625 -0.3520773
vn 0.5506536 -0.7563397 -0.3531724
vn 0.7563398 -0.5506536 -0.3531722
vn 0.8898625 -0.2901488 -0.3520772
vn 0.9363291 0 -0.3511234
vn 0.2195191 -0.6714701 0.7077707
vn 0.4156313 -0.5703877 0.708455
vn 0.5703881 -0.4156316 0.7084546
vn 0.67147 -0.219519 0.7077707
vn 0.7071068 0 0.7071067
vn 0 0.4579565 0.8889746
vn 0.1412845 0.4347158 0.8894159
vn 0.2682967 0.3689065 0.8899016
vn 0.3689065 0.2682968 0.8899016
vn 0.4347161 0.1412846 0.8894158
vn 0 0.961524 -0.2747212
vn 0.2971723 0.9142463 -0.2753948
vn 0.5653169 0.7772744 -0.2761545
vn 0.7772744 0.5653169 -0.2761545
vn 0.9142464 0.2971724 -0.2753946
vn 0 0.8203982 -0.5717927
vn 0.2535383 0.7795053 -0.5727912
vn 0.481746 0.66223 -0.5739096
vn 0.6622301 0.481746 -0.5739094
vn 0.7795054 0.2535384 -0.572791
vn 0 0.9363291 -0.3511234
vn 0.2901488 0.8898625 -0.3520773
vn 0.5506536 0.7563397 -0.3531724
vn 0.7563398 0.5506536 -0.3531722
vn 0.8898625 0.2901488 -0.3520772
vn 0 0.7071068 0.7071067
vn 0.2195191 0.6714701 0.7077707
vn 0.4156313 0.5703877 0.708455
vn 0.5703881 0.4156316 0.7084546
vn 0.67147 0.219519 0.7077707
vn -0.4347158 0.1412845 0.8894159
vn -0.3689065 0.2682967 0.8899016
vn -0.2682968 0.3689065 0.8899016
vn -0.1412846 0.4347161 0.8894158
vn -0.9142463 0.2971723 -0.2753948
vn -0.7772744 0.5653169 -0.2761545
vn -0.5653169 0.7772744 -0.2761545
vn -0.2971724 0.9142464 -0.2753946
vn -0.7795053 0.2535383 -0.5727912
vn -0.66223 0.481746 -0.5739096
vn -0.481746 0.6622301 -0.5739094
vn -0.2535384 0.7795054 -0.572791
vn -0.8898625 0.2901488 -0.3520773
vn -0.7563397 0.5506536 -0.3531724
vn -0.5506536 0.7563398 -0.3531722
vn -0.2901488 0.8898625 -0.3520772
vn -0.6714701 0.2195191 0.7077707
vn -0.5703877 0.4156313 0.708455
vn -0.4156316 0.5703881 0.7084546
vn -0.219519 0.67147 0.7077707
vn -0.3107387 0 0.9504954
vn -0.2948543 -0.09639468 0.9506676
vn -0.2502722 -0.1823689 0.9508446
vn -0.1823687 -0.2502719 0.9508447
vn -0.09639459 -0.2948541 0.9506677
vn 0 -0.3107387 0.9504954
vn -0.2020914 0 0.9793667
vn -0.191741 -0.06268456 0.9794417
vn -0.1627321 -0.11858 0.9795188
vn -0.1185798 -0.1627319 0.9795188
vn -0.0626845 -0.1917409 0.9794417
vn 0 -0.2020914 0.9793667
vn -0.2187115 0 0.9757896
vn -0.2075127 -0.06784069 0.9758771
vn -0.17612 -0.1283355 0.9759671
vn -0.1283354 -0.1761198 0.9759671
vn -0.06784067 -0.2075126 0.9758771
vn 0 -0.2187115 0.9757896
vn -0.4175003 0 0.9086767
vn -0.396217 -0.1295325 0.9089738
vn -0.3363589 -0.2450987 0.9092795
vn -0.2450985 -0.3363587 0.9092797
vn -0.1295325 -0.396217 0.9089738
vn 0 -0.4175003 0.9086767
vn -1 0 0
vn -0.9504953 -0.3107388 0
vn -0.8081939 -0.5889165 0
vn -0.5889165 -0.8081939 0
vn -0.3107388 -0.9504953 0
vn 0 -1 0
vn 0.09639468 -0.2948543 0.9506676
vn 0.1823689 -0.2502722 0.9508446
vn 0.2502719 -0.1823687 0.9508447
vn 0.2948541 -0.09639459 0.9506677
vn 0.3107387 0 0.9504954
vn 0.06268456 -0.191741 0.9794417
vn 0.11858 -0.1627321 0.9795188
vn 0.1627319 -0.1185798 0.9795188
vn 0.1917409 -0.0626845 0.9794417
vn 0.2020914 0 0.9793667
vn 0.06784069 -0.2075127 0.9758771
vn 0.1283355 -0.17612 0.9759671
vn 0.1761198 -0.1283354 0.9759671
vn 0.2075126 -0.06784067 0.9758771
vn 0.2187115 0 0.9757896
vn 0.1295325 -0.396217 0.9089738
vn 0.2450987 -0.3363589 0.9092795
vn 0.3363587 -0.2450985 0.9092797
vn 0.396217 -0.1295325 0.9089738
vn 0.4175003 0 0.9086767
vn 0.3107388 -0.9504953 0
vn 0.5889165 -0.8081939 0
vn 0.8081939 -0.5889165 0
vn 0.9504953 -0.3107388 0
vn 1 0 0
vn 0 0.3107387 0.9504954
vn 0.09639468 0.2948543 0.9506676
vn 0.1823689 0.2502722 0.9508446
vn 0.2502719 0.1823687 0.9508447
vn 0.2948541 0.09639459 0.9506677
vn 0 0.2020914 0.9793667
vn 0.06268456 0.191741 0.9794417
vn 0.11858 0.1627321 0.9795188
vn 0.1627319 0.1185798 0.9795188
vn 0.1917409 0.0626845 0.9794417
vn 0 0.2187115 0.9757896
vn 0.06784069 0.2075127 0.9758771
vn 0.1283355 0.17612 0.9759671
vn 0.1761198 0.1283354 0.9759671
vn 0.2075126 0.06784067 0.9758771
vn 0 0.4175003 0.9086767
vn 0.1295325 0.396217 0.9089738
vn 0.2450987 0.3363589 0.9092795
vn 0.3363587 0.2450985 0.9092797
vn 0.396217 0.1295325 0.9089738
vn 0 1 0
vn 0.3107388 0.9504953 0
vn 0.5889165 0.8081939 0
vn 0.8081939 0.5889165 0
vn 0.9504953 0.3107388 0
vn -0.2948543 0.09639468 0.9506676
vn -0.2502722 0.1823689 0.9508446
vn -0.1823687 0.2502719 0.9508447
vn -0.09639459 0.2948541 0.9506677
vn -0.191741 0.06268456 0.9794417
vn -0.1627321 0.11858 0.9795188
vn -0.1185798 0.1627319 0.9795188
vn -0.0626845 0.1917409 0.9794417
vn -0.2075127 0.06784069 0.9758771
vn -0.17612 0.1283355 0.9759671
vn -0.1283354 0.1761198 0.9759671
vn -0.06784067 0.2075126 0.9758771
vn -0.396217 0.1295325 0.9089738
vn -0.3363589 0.2450987 0.9092795
vn -0.2450985 0.3363587 0.9092797
vn -0.1295325 0.396217 0.9089738
vn -0.9504953 0.3107388 0
vn -0.8081939 0.5889165 0
vn -0.5889165 0.8081939 0
vn -0.3107388 0.9504953 0
vn 0.9417419 0 -0.3363365
vn 0.8949311 0.2925736 -0.3368963
vn 0.7607805 0.5543672 -0.3374762
vn 0.5543671 0.7607803 -0.3374766
vn 0.2925735 0.8949309 -0.3368968
vn 0 0.9417419 -0.3363365
vn 0.9986309 0 -0.05230917
vn 0.9491892 0.3103119 -0.0524067
vn 0.807079 0.5881041 -0.05250899
vn 0.5881041 0.807079 -0.05250853
vn 0.3103118 0.9491891 -0.05240723
vn 0 0.9986309 -0.05230917
vn 0.7020739 0 0.7121041
vn 0.6666822 0.2179538 0.712763
vn 0.5663134 0.4126625 0.7134415
vn 0.4126617 0.5663124 0.7134427
vn 0.2179539 0.6666825 0.7127627
vn 0 0.7020739 0.7121041
vn -0.5007541 0 0.8655896
vn -0.4752949 -0.1553849 0.8659967
vn -0.4035502 -0.2940599 0.8664156
vn -0.2940593 -0.4035496 0.8664162
vn -0.1553849 -0.475295 0.8659967
vn 0 -0.5007541 0.8655896
vn -0.8338783 0 0.5519482
vn -0.7921435 -0.25897 0.5526692
vn -0.6731505 -0.4905127 0.5534127
vn -0.4905126 -0.6731503 0.5534132
vn -0.25897 -0.7921435 0.5526692
vn 0 -0.8338783 0.5519482
vn -0.9417419 0 0.3363365
vn -0.8949306 -0.2925735 0.3368973
vn -0.7607805 -0.5543671 0.337476
vn -0.5543672 -0.7607806 0.3374758
vn -0.2925735 -0.8949306 0.3368973
vn 0 -0.9417419 0.3363365
vn -0.2925736 0.8949311 -0.3368963
vn -0.5543672 0.7607805 -0.3374762
vn -0.7607803 0.5543671 -0.3374766
vn -0.8949309 0.2925735 -0.3368968
vn -0.9417419 0 -0.3363365
vn -0.3103119 0.9491892 -0.0524067
vn -0.5881041 0.807079 -0.05250899
vn -0.807079 0.5881041 -0.05250853
vn -0.9491891 0.3103118 -0.05240723
vn -0.9986309 0 -0.05230917
vn -0.2179538 0.6666822 0.712763
vn -0.4126625 0.5663134 0.7134415
vn -0.5663124 0.4126617 0.7134427
vn -0.6666825 0.2179539 0.7127627
vn -0.7020739 0 0.7121041
vn 0.1553849 -0.4752949 0.8659967
vn 0.2940599 -0.4035502 0.8664156
vn 0.4035496 -0.2940593 0.8664162
vn 0.475295 -0.1553849 0.8659967
vn 0.5007541 0 0.8655896
vn 0.25897 -0.7921435 0.5526692
vn 0.4905127 -0.6731505 0.5534127
vn 0.6731503 -0.4905126 0.5534132
vn 0.7921435 -0.25897 0.5526692
vn 0.8338783 0 0.5519482
vn 0.2925735 -0.8949306 0.3368973
vn 0.5543671 -0.7607805 0.337476
vn 0.7607806 -0.5543672 0.3374758
vn 0.8949306 -0.2925735 0.3368973
vn 0.9417419 0 0.3363365
vn 0 -0.9417419 -0.3363365
vn -0.2925736 -0.8949311 -0.3368963
vn -0.5543672 -0.7607805 -0.3374762
vn -0.7607803 -0.5543671 -0.3374766
vn -0.8949309 -0.2925735 -0.3368968
vn 0 -0.9986309 -0.05230917
vn -0.3103119 -0.9491892 -0.0524067
vn -0.5881041 -0.807079 -0.05250899
vn -0.807079 -0.5881041 -0.05250853
vn -0.9491891 -0.3103118 -0.05240723
vn 0 -0.7020739 0.7121041
vn -0.2179538 -0.6666822 0.712763
vn -0.4126625 -0.5663134 0.7134415
vn -0.5663124 -0.4126617 0.7134427
vn -0.6666825 -0.2179539 0.7127627
vn 0 0.5007541 0.8655896
vn 0.1553849 0.4752949 0.8659967
vn 0.2940599 0.4035502 0.8664156
vn 0.4035496 0.2940593 0.8664162
vn 0.475295 0.1553849 0.8659967
vn 0 0.8338783 0.5519482
vn 0.25897 0.7921435 0.5526692
vn 0.4905127 0.6731505 0.5534127
vn 0.6731503 0.4905126 0.5534132
vn 0.7921435 0.25897 0.5526692
vn 0 0.9417419 0.3363365
vn 0.2925735 0.8949306 0.3368973
vn 0.5543671 0.7607805 0.337476
vn 0.7607806 0.5543672 0.3374758
vn 0.8949306 0.2925735 0.3368973
vn 0.8949311 -0.2925736 -0.3368963
vn 0.7607805 -0.5543672 -0.3374762
vn 0.5543671 -0.7607803 -0.3374766
vn 0.2925735 -0.8949309 -0.3368968
vn 0.9491892 -0.3103119 -0.0524067
vn 0.807079 -0.5881041 -0.05250899
vn 0.5881041 -0.807079 -0.05250853
vn 0.3103118 -0.9491891 -0.05240723
vn 0.6666822 -0.2179538 0.712763
vn 0.5663134 -0.4126625 0.7134415
vn 0.4126617 -0.5663124 0.7134427
vn 0.2179539 -0.6666825 0.7127627
vn -0.4752949 0.1553849 0.8659967
vn -0.4035502 0.2940599 0.8664156
vn -0.2940593 0.4035496 0.8664162
vn -0.1553849 0.475295 0.8659967
vn -0.7921435 0.25897 0.5526692
vn -0.6731505 0.4905127 0.5534127
vn -0.4905126 0.6731503 0.5534132
vn -0.25897 0.7921435 0.5526692
vn -0.8949306 0.2925735 0.3368973
vn -0.7607805 0.5543671 0.337476
vn -0.5543672 0.7607806 0.3374758
vn -0.2925735 0.8949306 0.3368973
vn -0.945373 0 0.3259906
vn -0.8983929 -0.2937054 0.3265385
vn -0.7637338 -0.5565192 0.3271043
vn -0.5565191 -0.7637338 0.3271042
vn -0.2937054 -0.898393 0.3265384
vn 0 -0.945373 0.3259906
vn -0.9559601 0 0.2934965
vn -0.9084883 -0.2970058 0.2940007
vn -0.7723463 -0.5627949 0.2945218
vn -0.5627949 -0.7723463 0.2945219
vn -0.2970058 -0.9084883 0.2940008
vn 0 -0.9559601 0.2934965
vn -0.9721743 0 0.2342588
vn -0.9239517 -0.3020611 0.2346751
vn -0.7855402 -0.5724091 0.2351053
vn -0.5724091 -0.7855402 0.2351055
vn -0.3020611 -0.9239517 0.2346752
vn 0 -0.9721743 0.2342588
vn -0.9901354 0 0.1401135
vn -0.9410843 -0.3076622 0.1403718
vn -0.8001612 -0.5830632 0.1406387
vn -0.5830632 -0.8001612 0.1406389
vn -0.3076621 -0.9410843 0.1403719
vn 0 -0.9901354 0.1401135
vn -1 0 0
vn -0.9504953 -0.3107388 0
vn -0.8081939 -0.5889165 0
vn -0.5889165 -0.8081939 0
vn -0.3107388 -0.9504954 0
vn 0 -1 0
vn 0.2937054 -0.8983929 0.3265385
vn 0.5565192 -0.7637338 0.3271043
vn 0.7637338 -0.5565191 0.3271042
vn 0.898393 -0.2937054 0.3265384
vn 0.945373 0 0.3259906
vn 0.2970058 -0.9084883 0.2940007
vn 0.5627949 -0.7723463 0.2945218
vn 0.7723463 -0.5627949 0.2945219
vn 0.9084883 -0.2970058 0.2940008
vn 0.9559601 0 0.2934965
vn 0.3020611 -0.9239517 0.2346751
vn 0.5724091 -0.7855402 0.2351053
vn 0.7855402 -0.5724091 0.2351055
vn 0.9239517 -0.3020611 0.2346752
vn 0.9721743 0 0.2342588
vn 0.3076622 -0.9410843 0.1403718
vn 0.5830632 -0.8001612 0.1406387
vn 0.8001612 -0.5830632 0.1406389
vn 0.9410843 -0.3076621 0.1403719
vn 0.9901354 0 0.1401135
vn 0.3107388 -0.9504953 0
vn 0.5889165 -0.8081939 0
vn 0.8081939 -0.5889165 0
vn 0.9504954 -0.3107388 0
vn 1 0 0
vn 0 0.945373 0.3259906
vn 0.2937054 0.8983929 0.3265385
vn 0.5565192 0.7637338 0.3271043
vn 0.7637338 0.5565191 0.3271042
vn 0.898393 0.2937054 0.3265384
vn 0 0.9559601 0.2934965
vn 0.2970058 0.9084883 0.2940007
vn 0.5627949 0.7723463 0.2945218
vn 0.7723463 0.5627949 0.2945219
vn 0.9084883 0.2970058 0.2940008
vn 0 0.9721743 0.2342588
vn 0.3020611 0.9239517 0.2346751
vn 0.5724091 0.7855402 0.2351053
vn 0.7855402 0.5724091 0.2351055
vn 0.9239517 0.3020611 0.2346752
vn 0 0.9901354 0.1401135
vn 0.3076622 0.9410843 0.1403718
vn 0.5830632 0.8001612 0.1406387
vn 0.8001612 0.5830632 0.1406389
vn 0.9410843 0.3076621 0.1403719
vn 0 1 0
vn 0.3107388 0.9504953 0
vn 0.5889165 0.8081939 0
vn 0.8081939 0.5889165 0
vn 0.9504954 0.3107388 0
vn -0.8983929 0.2937054 0.3265385
vn -0.7637338 0.5565192 0.3271043
vn -0.5565191 0.7637338 0.3271042
vn -0.2937054 0.898393 0.3265384
vn -0.9084883 0.2970058 0.2940007
vn -0.7723463 0.5627949 0.2945218
vn -0.5627949 0.7723463 0.2945219
vn -0.2970058 0.9084883 0.2940008
vn -0.9239517 0.3020611 0.2346751
vn -0.7855402 0.5724091 0.2351053
vn -0.5724091 0.7855402 0.2351055
vn -0.3020611 0.9239517 0.2346752
vn -0.9410843 0.3076622 0.1403718
vn -0.8001612 0.5830632 0.1406387
vn -0.5830632 0.8001612 0.1406389
vn -0.3076621 0.9410843 0.1403719
vn -0.9504953 0.3107388 0
vn -0.8081939 0.5889165 0
vn -0.5889165 0.8081939 0
vn -0.3107388 0.9504954 0
vn -0.949465 0 -0.3138728
vn -0.9022948 -0.294981 -0.3144047
vn -0.7670624 -0.5589447 -0.3149543
vn -0.5589446 -0.7670624 -0.3149543
vn -0.2949809 -0.9022948 -0.3144048
vn 0 -0.949465 -0.3138728
vn -0.8429222 0 -0.5380354
vn -0.8007575 -0.2617861 -0.5387537
vn -0.6804902 -0.495861 -0.5394951
vn -0.495861 -0.6804902 -0.5394951
vn -0.261786 -0.8007574 -0.5387538
vn 0 -0.8429222 -0.5380354
vn -0.7546055 0 -0.6561787
vn -0.7166684 -0.2342955 -0.6568804
vn -0.6088639 -0.4436682 -0.6576042
vn -0.4436682 -0.6088638 -0.6576043
vn -0.2342954 -0.7166684 -0.6568806
vn 0 -0.7546055 -0.6561787
vn -0.7546055 0 -0.6561787
vn -0.7166685 -0.2342955 -0.6568805
vn -0.6088639 -0.4436682 -0.6576042
vn -0.4436682 -0.6088638 -0.6576043
vn -0.2342954 -0.7166684 -0.6568806
vn 0 -0.7546055 -0.6561787
vn -1 0 0
vn -0.9504953 -0.3107389 0
vn -0.8081939 -0.5889164 0
vn -0.5889164 -0.808194 0
vn -0.3107389 -0.9504953 0
vn 0 -1 0
vn 0.294981 -0.9022948 -0.3144047
vn 0.5589447 -0.7670624 -0.3149543
vn 0.7670624 -0.5589446 -0.3149543
vn 0.9022948 -0.2949809 -0.3144048
vn 0.949465 0 -0.3138728
vn 0.2617861 -0.8007575 -0.5387537
vn 0.495861 -0.6804902 -0.5394951
vn 0.6804902 -0.495861 -0.5394951
vn 0.8007574 -0.261786 -0.5387538
vn 0.8429222 0 -0.5380354
vn 0.2342955 -0.7166684 -0.6568804
vn 0.4436682 -0.6088639 -0.6576042
vn 0.6088638 -0.4436682 -0.6576043
vn 0.7166684 -0.2342954 -0.6568806
vn 0.7546055 0 -0.6561787
vn 0.2342955 -0.7166685 -0.6568805
vn 0.4436682 -0.6088639 -0.6576042
vn 0.6088638 -0.4436682 -0.6576043
vn 0.7166684 -0.2342954 -0.6568806
vn 0.7546055 0 -0.6561787
vn 0.3107389 -0.9504953 0
vn 0.5889164 -0.8081939 0
vn 0.808194 -0.5889164 0
vn 0.9504953 -0.3107389 0
vn 1 0 0
vn 0 0.949465 -0.3138728
vn 0.294981 0.9022948 -0.3144047
vn 0.5589447 0.7670624 -0.3149543
vn 0.7670624 0.5589446 -0.3149543
vn 0.9022948 0.2949809 -0.3144048
vn 0 0.8429222 -0.5380354
vn 0.2617861 0.8007575 -0.5387537
vn 0.495861 0.6804902 -0.5394951
vn 0.6804902 0.495861 -0.5394951
vn 0.8007574 0.261786 -0.5387538
vn 0 0.7546055 -0.6561787
vn 0.2342955 0.7166684 -0.6568804
vn 0.4436682 0.6088639 -0.6576042
vn 0.6088638 0.4436682 -0.6576043
vn 0.7166684 0.2342954 -0.6568806
vn 0 0.7546055 -0.6561787
vn 0.2342955 0.7166685 -0.6568805
vn 0.4436682 0.6088639 -0.6576042
vn 0.6088638 0.4436682 -0.6576043
vn 0.7166684 0.2342954 -0.6568806
vn 0 1 0
vn 0.3107389 0.9504953 0
vn 0.5889164 0.8081939 0
vn 0.808194 0.5889164 0
vn 0.9504953 0.3107389 0
vn -0.9022948 0.294981 -0.3144047
vn -0.7670624 0.5589447 -0.3149543
vn -0.5589446 0.7670624 -0.3149543
vn -0.2949809 0.9022948 -0.3144048
vn -0.8007575 0.2617861 -0.5387537
vn -0.6804902 0.495861 -0.5394951
vn -0.495861 0.6804902 -0.5394951
vn -0.261786 0.8007574 -0.5387538
vn -0.7166684 0.2342955 -0.6568804
vn -0.6088639 0.4436682 -0.6576042
vn -0.4436682 0.6088638 -0.6576043
vn -0.2342954 0.7166684 -0.6568806
vn -0.7166685 0.2342955 -0.6568805
vn -0.6088639 0.4436682 -0.6576042
vn -0.4436682 0.6088638 -0.6576043
vn -0.2342954 0.7166684 -0.6568806
vn -0.9504953 0.3107389 0
vn -0.8081939 0.5889164 0
vn -0.5889164 0.808194 0
vn -0.3107389 0.9504953 0

vt 0.125 1
vt 0.1484375 1
vt 0.171875 1
vt 0.1953125 1
vt 0.21875 1
vt 0.2421875 1
vt 0.125 0.9351429
vt 0.1484375 0.9348556
vt 0.171875 0.9340794
vt 0.1953125 0.9329388
vt 0.21875 0.931736
vt 0.2421875 0.9311429
vt 0.125 0.8811429
vt 0.1484375 0.8805888
vt 0.171875 0.8790919
vt 0.1953125 0.8768921
vt 0.21875 0.8745725
vt 0.2421875 0.8734286
vt 0.125 0.8345714
vt 0.1484375 0.8338943
vt 0.171875 0.8320647
vt 0.1953125 0.829376
vt 0.21875 0.826541
vt 0.2421875 0.8251429
vt 0.125 0.792
vt 0.1484375 0.7914665
vt 0.171875 0.790025
vt 0.1953125 0.7879066
vt 0.21875 0.785673
vt 0.2421875 0.7845714
vt 0.125 0.75
vt 0.1484375 0.75
vt 0.171875 0.75
vt 0.1953125 0.75
vt 0.21875 0.75
vt 0.2421875 0.75
vt 0.1015625 1
vt 0.078125 1
vt 0.0546875 1
vt 0.03125 1
vt 0.0078125 1
vt 0.1015625 0.9348556
vt 0.078125 0.9340794
vt 0.0546875 0.9329388
vt 0.03125 0.931736
vt 0.0078125 0.9311429
vt 0.1015625 0.8805888
vt 0.078125 0.8790919
vt 0.0546875 0.8768921
vt 0.03125 0.8745725
vt 0.0078125 0.8734286
vt 0.1015625 0.8338943
vt 0.078125 0.8320647
vt 0.0546875 0.829376
vt 0.03125 0.826541
vt 0.0078125 0.8251429
vt 0.1015625 0.7914665
vt 0.078125 0.790025
vt 0.0546875 0.7879066
vt 0.03125 0.785673
vt 0.0078125 0.7845714
vt 0.1015625 0.75
vt 0.078125 0.75
vt 0.0546875 0.75
vt 0.03125 0.75
vt 0.0078125 0.75
vt 0.125 0.7098101
vt 0.1484375 0.7103259
vt 0.171875 0.7117105
vt 0.1953125 0.7137088
vt 0.21875 0.7157533
vt 0.2421875 0.7167346
vt 0.125 0.6673616
vt 0.1484375 0.6678716
vt 0.171875 0.669228
vt 0.1953125 0.6711592
vt 0.21875 0.6731107
vt 0.2421875 0.6740404
vt 0.125 0.6217579
vt 0.1484375 0.6220043
vt 0.171875 0.6226403
vt 0.1953125 0.6235054
vt 0.21875 0.6243414
vt 0.2421875 0.6247288
vt 0.125 0.5721028
vt 0.1484375 0.5720913
vt 0.171875 0.5720351
vt 0.1953125 0.571901
vt 0.21875 0.5717148
vt 0.2421875 0.5716115
vt 0.125 0.5175
vt 0.1484375 0.5175
vt 0.171875 0.5175
vt 0.1953125 0.5175
vt 0.21875 0.5175
vt 0.2421875 0.5175
vt 0.1015625 0.7103259
vt 0.078125 0.7117105
vt 0.0546875 0.7137088
vt 0.03125 0.7157533
vt 0.0078125 0.7167346
vt 0.1015625 0.6678716
vt 0.078125 0.669228
vt 0.0546875 0.6711592
vt 0.03125 0.6731107
vt 0.0078125 0.6740404
vt 0.1015625 0.6220043
vt 0.078125 0.6226403
vt 0.0546875 0.6235054
vt 0.03125 0.6243414
vt 0.0078125 0.6247288
vt 0.1015625 0.5720913
vt 0.078125 0.5720351
vt 0.0546875 0.571901
vt 0.03125 0.5717148
vt 0.0078125 0.5716115
vt 0.1015625 0.5175
vt 0.078125 0.5175
vt 0.0546875 0.5175
vt 0.03125 0.5175
vt 0.0078125 0.5175
vt 0.75 1
vt 0.775 1
vt 0.8 1
vt 0.825 1
vt 0.85 1
vt 0.875 1
vt 0.75 0.984221
vt 0.775 0.9837738
vt 0.8 0.982859
vt 0.825 0.98217
vt 0.85 0.981878
vt 0.875 0.9817806
vt 0.75 0.9696105
vt 0.775 0.9692232
vt 0.8 0.968442
vt 0.825 0.9678196
vt 0.85 0.9675143
vt 0.875 0.9674113
vt 0.75 0.9553895
vt 0.775 0.9552856
vt 0.8 0.9550955
vt 0.825 0.9548843
vt 0.85 0.9547116
vt 0.875 0.9546517
vt 0.75 0.940779
vt 0.775 0.9408987
vt 0.8 0.9411659
vt 0.825 0.9412993
vt 0.85 0.9412726
vt 0.875 0.9412614
vt 0.75 0.925
vt 0.775 0.925
vt 0.8 0.925
vt 0.825 0.925
vt 0.85 0.925
vt 0.875 0.925
vt 1 1
vt 0.975 1
vt 0.95 1
vt 0.925 1
vt 0.9 1
vt 1 0.984221
vt 0.975 0.9837738
vt 0.95 0.982859
vt 0.925 0.98217
vt 0.9 0.981878
vt 1 0.9696105
vt 0.975 0.9692232
vt 0.95 0.968442
vt 0.925 0.9678196
vt 0.9 0.9675143
vt 1 0.9553895
vt 0.975 0.9552856
vt 0.95 0.9550955
vt 0.925 0.9548843
vt 0.9 0.9547116
vt 1 0.940779
vt 0.975 0.9408987
vt 0.95 0.9411659
vt 0.925 0.9412993
vt 0.9 0.9412726
vt 1 0.925
vt 0.975 0.925
vt 0.95 0.925
vt 0.925 0.925
vt 0.9 0.925
vt 0.75 0.8598721
vt 0.775 0.8596469
vt 0.8 0.8588948
vt 0.825 0.8579619
vt 0.85 0.8572381
vt 0.875 0.8569463
vt 0.75 0.7826029
vt 0.775 0.7817422
vt 0.8 0.7800086
vt 0.825 0.7783858
vt 0.85 0.7773009
vt 0.875 0.776903
vt 0.75 0.6967257
vt 0.775 0.695342
vt 0.8 0.693003
vt 0.825 0.6911569
vt 0.85 0.6900728
vt 0.875 0.6897146
vt 0.75 0.605774
vt 0.775 0.6045029
vt 0.8 0.60254
vt 0.825 0.6011604
vt 0.85 0.6004381
vt 0.875 0.6002258
vt 0.75 0.5132812
vt 0.775 0.5132812
vt 0.8 0.5132812
vt 0.825 0.5132812
vt 0.85 0.5132812
vt 0.875 0.5132812
vt 1 0.8598721
vt 0.975 0.8596469
vt 0.95 0.8588948
vt 0.925 0.8579619
vt 0.9 0.8572381
vt 1 0.7826029
vt 0.975 0.7817422
vt 0.95 0.7800086
vt 0.925 0.7783858
vt 0.9 0.7773009
vt 1 0.6967257
vt 0.975 0.695342
vt 0.95 0.693003
vt 0.925 0.6911569
vt 0.9 0.6900728
vt 1 0.605774
vt 0.975 0.6045029
vt 0.95 0.60254
vt 0.925 0.6011604
vt 0.9 0.6004381
vt 1 0.5132812
vt 0.975 0.5132812
vt 0.95 0.5132812
vt 0.925 0.5132812
vt 0.9 0.5132812
vt 0.375 0.75
vt 0.375 0.6924297
vt 0.3838981 0.6952292
vt 0.3919312 0.7033924
vt 0.3983038 0.7161375
vt 0.4023854 0.7322038
vt 0.4037851 0.75
vt 0.375 0.6361901
vt 0.3925889 0.6417338
vt 0.408465 0.6578786
vt 0.4210607 0.6830699
vt 0.4291331 0.7148222
vt 0.4319049 0.75
vt 0.375 0.5852981
vt 0.400452 0.5933335
vt 0.4234213 0.6167075
vt 0.4416462 0.6531574
vt 0.4533333 0.699096
vt 0.4573509 0.75
vt 0.375 0.5437708
vt 0.4068669 0.5538477
vt 0.4356201 0.5831273
vt 0.4584364 0.6287599
vt 0.4730761 0.6862662
vt 0.4781146 0.75
vt 0.375 0.515625
vt 0.411213 0.5270962
vt 0.4438811 0.5603867
vt 0.4698067 0.6122378
vt 0.4864519 0.6775742
vt 0.4921875 0.75
vt 0.4023854 0.7677962
vt 0.3983038 0.7838625
vt 0.3919312 0.7966076
vt 0.383898 0.8047708
vt 0.375 0.8075703
vt 0.4291331 0.7851778
vt 0.4210607 0.8169301
vt 0.408465 0.8421213
vt 0.3925889 0.8582662
vt 0.375 0.8638099
vt 0.4533333 0.8009041
vt 0.4416462 0.8468427
vt 0.4234214 0.8832925
vt 0.400452 0.9066665
vt 0.375 0.9147019
vt 0.4730761 0.8137338
vt 0.4584363 0.8712401
vt 0.4356201 0.9168726
vt 0.4068669 0.9461523
vt 0.375 0.9562292
vt 0.4864519 0.8224259
vt 0.4698066 0.8877622
vt 0.4438811 0.9396133
vt 0.411213 0.9729038
vt 0.375 0.984375
vt 0.3462149 0.75
vt 0.3476146 0.7677962
vt 0.3516962 0.7838625
vt 0.3580688 0.7966076
vt 0.366102 0.8047708
vt 0.3180951 0.75
vt 0.3208669 0.7851778
vt 0.3289393 0.8169301
vt 0.341535 0.8421213
vt 0.3574111 0.8582662
vt 0.2926491 0.75
vt 0.2966667 0.8009041
vt 0.3083538 0.8468427
vt 0.3265786 0.8832925
vt 0.349548 0.9066665
vt 0.2718854 0.75
vt 0.2769239 0.8137338
vt 0.2915637 0.8712401
vt 0.3143799 0.9168726
vt 0.3431331 0.9461523
vt 0.2578125 0.75
vt 0.2635481 0.8224259
vt 0.2801934 0.8877622
vt 0.3061189 0.9396133
vt 0.338787 0.9729038
vt 0.3661019 0.6952292
vt 0.3580688 0.7033924
vt 0.3516962 0.7161375
vt 0.3476146 0.7322038
vt 0.3574111 0.6417338
vt 0.341535 0.6578786
vt 0.3289393 0.6830699
vt 0.3208669 0.7148222
vt 0.349548 0.5933335
vt 0.3265787 0.6167075
vt 0.3083538 0.6531574
vt 0.2966667 0.699096
vt 0.3431331 0.5538477
vt 0.3143799 0.5831273
vt 0.2915636 0.6287599
vt 0.2769239 0.6862662
vt 0.338787 0.5270962
vt 0.3061189 0.5603867
vt 0.2801933 0.6122378
vt 0.2635481 0.6775742
vt 0.625 0.7139423
vt 0.6305712 0.7157071
vt 0.6355971 0.7208287
vt 0.6395857 0.7288058
vt 0.6421465 0.7388576
vt 0.6430289 0.75
vt 0.625 0.6804945
vt 0.6357386 0.6838998
vt 0.645425 0.6937747
vt 0.6531126 0.7091499
vt 0.6580501 0.7285228
vt 0.6597527 0.75
vt 0.625 0.6348718
vt 0.6427888 0.6405034
vt 0.6588373 0.6568539
vt 0.6715731 0.6823254
vt 0.6797483 0.7144224
vt 0.6825641 0.75
vt 0.625 0.5861413
vt 0.6503195 0.5941496
vt 0.673164 0.6174158
vt 0.6912921 0.653672
vt 0.7029252 0.6993611
vt 0.7069293 0.75
vt 0.625 0.54337
vt 0.6569282 0.55347
vt 0.6857352 0.5828103
vt 0.7085949 0.6285295
vt 0.7232651 0.6861435
vt 0.728315 0.75
vt 0.625 0.515625
vt 0.6612129 0.5270962
vt 0.6938811 0.5603867
vt 0.7198067 0.6122378
vt 0.7364519 0.6775742
vt 0.7421875 0.75
vt 0.6421465 0.7611424
vt 0.6395856 0.7711942
vt 0.6355971 0.7791713
vt 0.6305712 0.7842929
vt 0.625 0.7860577
vt 0.6580501 0.7714773
vt 0.6531126 0.7908501
vt 0.6454251 0.8062253
vt 0.6357386 0.8161002
vt 0.625 0.8195055
vt 0.6797483 0.7855777
vt 0.671573 0.8176746
vt 0.6588373 0.8431461
vt 0.6427888 0.8594966
vt 0.625 0.8651282
vt 0.7029252 0.8006389
vt 0.691292 0.8463281
vt 0.673164 0.8825841
vt 0.6503195 0.9058504
vt 0.625 0.9138587
vt 0.723265 0.8138565
vt 0.7085949 0.8714705
vt 0.6857352 0.9171897
vt 0.6569282 0.94653
vt 0.625 0.95663
vt 0.7364519 0.8224259
vt 0.7198067 0.8877622
vt 0.6938811 0.9396133
vt 0.6612129 0.9729038
vt 0.625 0.984375
vt 0.6069711 0.75
vt 0.6078535 0.7611424
vt 0.6104144 0.7711942
vt 0.6144029 0.7791713
vt 0.6194288 0.7842929
vt 0.5902473 0.75
vt 0.5919499 0.7714773
vt 0.5968874 0.7908501
vt 0.6045749 0.8062253
vt 0.6142614 0.8161002
vt 0.5674359 0.75
vt 0.5702517 0.7855777
vt 0.578427 0.8176746
vt 0.5911627 0.8431461
vt 0.6072112 0.8594966
vt 0.5430707 0.75
vt 0.5470748 0.8006389
vt 0.558708 0.8463281
vt 0.576836 0.8825841
vt 0.5996805 0.9058504
vt 0.521685 0.75
vt 0.526735 0.8138565
vt 0.5414051 0.8714705
vt 0.5642648 0.9171897
vt 0.5930718 0.94653
vt 0.5078125 0.75
vt 0.5135481 0.8224259
vt 0.5301933 0.8877622
vt 0.5561189 0.9396133
vt 0.5887871 0.9729038
vt 0.6194288 0.7157071
vt 0.6144029 0.7208287
vt 0.6104143 0.7288058
vt 0.6078535 0.7388576
vt 0.6142614 0.6838998
vt 0.604575 0.6937747
vt 0.5968874 0.7091499
vt 0.5919499 0.7285228
vt 0.6072112 0.6405034
vt 0.5911627 0.6568539
vt 0.5784269 0.6823254
vt 0.5702517 0.7144224
vt 0.5996805 0.5941496
vt 0.576836 0.6174158
vt 0.5587079 0.653672
vt 0.5470748 0.6993611
vt 0.5930718 0.55347
vt 0.5642648 0.5828103
vt 0.5414051 0.6285295
vt 0.5267349 0.6861435
vt 0.5887871 0.5270962
vt 0.5561189 0.5603867
vt 0.5301933 0.6122378
vt 0.5135481 0.6775742
vt 0 0.5
vt 0.05 0.5
vt 0.1 0.5
vt 0.15 0.5
vt 0.2 0.5
vt 0.25 0.5
vt 0 0.4908663
vt 0.05 0.490868
vt 0.1 0.4908697
vt 0.15 0.4908698
vt 0.2 0.490868
vt 0.25 0.4908663
vt 0 0.4828331
vt 0.05 0.482834
vt 0.1 0.4828349
vt 0.15 0.4828349
vt 0.2 0.482834
vt 0.25 0.4828331
vt 0 0.4751669
vt 0.05 0.475166
vt 0.1 0.4751651
vt 0.15 0.4751651
vt 0.2 0.475166
vt 0.25 0.4751669
vt 0 0.4671337
vt 0.05 0.467132
vt 0.1 0.4671303
vt 0.15 0.4671302
vt 0.2 0.467132
vt 0.25 0.4671337
vt 0 0.458
vt 0.05 0.458
vt 0.1 0.458
vt 0.15 0.458
vt 0.2 0.458
vt 0.25 0.458
vt 0.3 0.5
vt 0.35 0.5
vt 0.4 0.5
vt 0.45 0.5
vt 0.5 0.5
vt 0.3 0.490868
vt 0.35 0.4908697
vt 0.4 0.4908698
vt 0.45 0.490868
vt 0.5 0.4908663
vt 0.3 0.482834
vt 0.35 0.4828349
vt 0.4 0.4828349
vt 0.45 0.482834
vt 0.5 0.4828331
vt 0.3 0.475166
vt 0.35 0.4751651
vt 0.4 0.4751651
vt 0.45 0.475166
vt 0.5 0.4751669
vt 0.3 0.467132
vt 0.35 0.4671303
vt 0.4 0.4671302
vt 0.45 0.467132
vt 0.5 0.4671337
vt 0.3 0.458
vt 0.35 0.458
vt 0.4 0.458
vt 0.45 0.458
vt 0.5 0.458
vt 0.75 0.5
vt 0.7 0.5
vt 0.65 0.5
vt 0.6 0.5
vt 0.55 0.5
vt 0.75 0.4908663
vt 0.7 0.490868
vt 0.65 0.4908697
vt 0.6 0.4908698
vt 0.55 0.490868
vt 0.75 0.4828331
vt 0.7 0.482834
vt 0.65 0.4828349
vt 0.6 0.4828349
vt 0.55 0.482834
vt 0.75 0.4751669
vt 0.7 0.475166
vt 0.65 0.4751651
vt 0.6 0.4751651
vt 0.55 0.475166
vt 0.75 0.4671337
vt 0.7 0.467132
vt 0.65 0.4671303
vt 0.6 0.4671302
vt 0.55 0.467132
vt 0.75 0.458
vt 0.7 0.458
vt 0.65 0.458
vt 0.6 0.458
vt 0.55 0.458
vt 1 0.5
vt 0.95 0.5
vt 0.9 0.5
vt 0.85 0.5
vt 0.8 0.5
vt 1 0.4908663
vt 0.95 0.490868
vt 0.9 0.4908697
vt 0.85 0.4908698
vt 0.8 0.490868
vt 1 0.4828331
vt 0.95 0.482834
vt 0.9 0.4828349
vt 0.85 0.4828349
vt 0.8 0.482834
vt 1 0.4751669
vt 0.95 0.475166
vt 0.9 0.4751651
vt 0.85 0.4751651
vt 0.8 0.475166
vt 1 0.4671337
vt 0.95 0.467132
vt 0.9 0.4671303
vt 0.85 0.4671302
vt 0.8 0.467132
vt 1 0.458
vt 0.95 0.458
vt 0.9 0.458
vt 0.85 0.458
vt 0.8 0.458
vt 0 0.4177078
vt 0.05 0.4177054
vt 0.1 0.417703
vt 0.15 0.417703
vt 0.2 0.4177054
vt 0.25 0.4177078
vt 0 0.3780387
vt 0.05 0.3780345
vt 0.1 0.3780302
vt 0.15 0.3780302
vt 0.2 0.3780345
vt 0.25 0.3780387
vt 0 0.3396156
vt 0.05 0.3396108
vt 0.1 0.3396059
vt 0.15 0.3396059
vt 0.2 0.3396108
vt 0.25 0.3396156
vt 0 0.3030617
vt 0.05 0.3030581
vt 0.1 0.3030545
vt 0.15 0.3030545
vt 0.2 0.3030581
vt 0.25 0.3030617
vt 0 0.269
vt 0.05 0.269
vt 0.1 0.269
vt 0.15 0.269
vt 0.2 0.269
vt 0.25 0.269
vt 0.3 0.4177054
vt 0.35 0.417703
vt 0.4 0.417703
vt 0.45 0.4177054
vt 0.5 0.4177078
vt 0.3 0.3780345
vt 0.35 0.3780302
vt 0.4 0.3780302
vt 0.45 0.3780345
vt 0.5 0.3780387
vt 0.3 0.3396108
vt 0.35 0.3396059
vt 0.4 0.3396059
vt 0.45 0.3396108
vt 0.5 0.3396156
vt 0.3 0.3030581
vt 0.35 0.3030545
vt 0.4 0.3030545
vt 0.45 0.3030581
vt 0.5 0.3030617
vt 0.3 0.269
vt 0.35 0.269
vt 0.4 0.269
vt 0.45 0.269
vt 0.5 0.269
vt 0.75 0.4177078
vt 0.7 0.4177054
vt 0.65 0.417703
vt 0.6 0.417703
vt 0.55 0.4177054
vt 0.75 0.3780387
vt 0.7 0.3780345
vt 0.65 0.3780302
vt 0.6 0.3780302
vt 0.55 0.3780345
vt 0.75 0.3396156
vt 0.7 0.3396108
vt 0.65 0.3396059
vt 0.6 0.3396059
vt 0.55 0.3396108
vt 0.75 0.3030617
vt 0.7 0.3030581
vt 0.65 0.3030545
vt 0.6 0.3030545
vt 0.55 0.3030581
vt 0.75 0.269
vt 0.7 0.269
vt 0.65 0.269
vt 0.6 0.269
vt 0.55 0.269
vt 1 0.4177078
vt 0.95 0.4177054
vt 0.9 0.417703
vt 0.85 0.417703
vt 0.8 0.4177054
vt 1 0.3780387
vt 0.95 0.3780345
vt 0.9 0.3780302
vt 0.85 0.3780302
vt 0.8 0.3780345
vt 1 0.3396156
vt 0.95 0.3396108
vt 0.9 0.3396059
vt 0.85 0.3396059
vt 0.8 0.3396108
vt 1 0.3030617
vt 0.95 0.3030581
vt 0.9 0.3030545
vt 0.85 0.3030545
vt 0.8 0.3030581
vt 1 0.269
vt 0.95 0.269
vt 0.9 0.269
vt 0.85 0.269
vt 0.8 0.269
vt 0 0.236146
vt 0.05 0.2361591
vt 0.1 0.2361722
vt 0.15 0.2361722
vt 0.2 0.2361591
vt 0.25 0.236146
vt 0 0.2057437
vt 0.05 0.2057573
vt 0.1 0.205771
vt 0.15 0.205771
vt 0.2 0.2057573
vt 0.25 0.2057437
vt 0 0.1798683
vt 0.05 0.179876
vt 0.1 0.1798837
vt 0.15 0.1798837
vt 0.2 0.179876
vt 0.25 0.1798683
vt 0 0.1605953
vt 0.05 0.1605964
vt 0.1 0.1605976
vt 0.15 0.1605976
vt 0.2 0.1605964
vt 0.25 0.1605953
vt 0 0.15
vt 0.05 0.15
vt 0.1 0.15
vt 0.15 0.15
vt 0.2 0.15
vt 0.25 0.15
vt 0.3 0.2361591
vt 0.35 0.2361722
vt 0.4 0.2361722
vt 0.45 0.2361591
vt 0.5 0.236146
vt 0.3 0.2057573
vt 0.35 0.205771
vt 0.4 0.205771
vt 0.45 0.2057573
vt 0.5 0.2057437
vt 0.3 0.179876
vt 0.35 0.1798837
vt 0.4 0.1798837
vt 0.45 0.179876
vt 0.5 0.1798683
vt 0.3 0.1605964
vt 0.35 0.1605976
vt 0.4 0.1605976
vt 0.45 0.1605964
vt 0.5 0.1605953
vt 0.3 0.15
vt 0.35 0.15
vt 0.4 0.15
vt 0.45 0.15
vt 0.5 0.15
vt 0.75 0.236146
vt 0.7 0.2361591
vt 0.65 0.2361722
vt 0.6 0.2361722
vt 0.55 0.2361591
vt 0.75 0.2057437
vt 0.7 0.2057573
vt 0.65 0.205771
vt 0.6 0.205771
vt 0.55 0.2057573
vt 0.75 0.1798683
vt 0.7 0.179876
vt 0.65 0.1798837
vt 0.6 0.1798837
vt 0.55 0.179876
vt 0.75 0.1605953
vt 0.7 0.1605964
vt 0.65 0.1605976
vt 0.6 0.1605976
vt 0.55 0.1605964
vt 0.75 0.15
vt 0.7 0.15
vt 0.65 0.15
vt 0.6 0.15
vt 0.55 0.15
vt 1 0.236146
vt 0.95 0.2361591
vt 0.9 0.2361722
vt 0.85 0.2361722
vt 0.8 0.2361591
vt 1 0.2057437
vt 0.95 0.2057573
vt 0.9 0.205771
vt 0.85 0.205771
vt 0.8 0.2057573
vt 1 0.1798683
vt 0.95 0.179876
vt 0.9 0.1798837
vt 0.85 0.1798837
vt 0.8 0.179876
vt 1 0.1605953
vt 0.95 0.1605964
vt 0.9 0.1605976
vt 0.85 0.1605976
vt 0.8 0.1605964
vt 1 0.15
vt 0.95 0.15
vt 0.9 0.15
vt 0.85 0.15
vt 0.8 0.15

f 2/2/2 1/1/1 7/7/7 8/8/8
f 3/3/3 2/2/2 8/8/8 9/9/9
f 4/4/4 3/3/3 9/9/9 10/10/10
f 5/5/5 4/4/4 10/10/10 11/11/11
f 6/6/6 5/5/5 11/11/11 12/12/12
f 8/8/8 7/7/7 13/13/13 14/14/14
f 9/9/9 8/8/8 14/14/14 15/15/15
f 10/10/10 9/9/9 15/15/15 16/16/16
f 11/11/11 10/10/10 16/16/16 17/17/17
f 12/12/12 11/11/11 17/17/17 18/18/18
f 14/14/14 13/13/13 19/19/19 20/20/20
f 15/15/15 14/14/14 20/20/20 21/21/21
f 16/16/16 15/15/15 21/21/21 22/22/22
f 17/17/17 16/16/16 22/22/22 23/23/23
f 18/18/18 17/17/17 23/23/23 24/24/24
f 20/20/20 19/19/19 25/25/25 26/26/26
f 21/21/21 20/20/20 26/26/26 27/27/27
f 22/22/22 21/21/21 27/27/27 28/28/28
f 23/23/23 22/22/22 28/28/28 29/29/29
f 24/24/24 23/23/23 29/29/29 30/30/30
f 26/26/26 25/25/25 31/31/31 32/32/32
f 27/27/27 26/26/26 32/32/32 33/33/33
f 28/28/28 27/27/27 33/33/33 34/34/34
f 29/29/29 28/28/28 34/34/34 35/35/35
f 30/30/30 29/29/29 35/35/35 36/36/36
f 7/7/7 1/1/1 37/37/37 41/42/41
f 41/42/41 37/37/37 38/38/38 42/43/42
f 42/43/42 38/38/38 39/39/39 43/44/43
f 43/44/43 39/39/39 40/40/40 44/45/44
f 44/45/44 40/40/40 6/41/6 12/46/12
f 13/13/13 7/7/7 41/42/41 45/47/45
f 45/47/45 41/42/41 42/43/42 46/48/46
f 46/48/46 42/43/42 43/44/43 47/49/47
f 47/49/47 43/44/43 44/45/44 48/50/48
f 48/50/48 44/45/44 12/46/12 18/51/18
f 19/19/19 13/13/13 45/47/45 49/52/49
f 49/52/49 45/47/45 46/48/46 50/53/50
f 50/53/50 46/48/46 47/49/47 51/54/51
f 51/54/51 47/49/47 48/50/48 52/55/52
f 52/55/52 48/50/48 18/51/18 24/56/24
f 25/25/25 19/19/19 49/52/49 53/57/53
f 53/57/53 49/52/49 50/53/50 54/58/54
f 54/58/54 50/53/50 51/54/51 55/59/55
f 55/59/55 51/54/51 52/55/52 56/60/56
f 56/60/56 52/55/52 24/56/24 30/61/30
f 31/31/31 25/25/25 53/57/53 57/62/57
f 57/62/57 53/57/53 54/58/54 58/63/58
f 58/63/58 54/58/54 55/59/55 59/64/59
f 59/64/59 55/59/55 56/60/56 60/65/60
f 60/65/60 56/60/56 30/61/30 36/66/36
f 32/32/32 31/31/31 61/67/61 62/68/62
f 33/33/33 32/32/32 62/68/62 63/69/63
f 34/34/34 33/33/33 63/69/63 64/70/64
f 35/35/35 34/34/34 64/70/64 65/71/65
f 36/36/36 35/35/35 65/71/65 66/72/66
f 62/68/62 61/67/61 67/73/67 68/74/68
f 63/69/63 62/68/62 68/74/68 69/75/69
f 64/70/64 63/69/63 69/75/69 70/76/70
f 65/71/65 64/70/64 70/76/70 71/77/71
f 66/72/66 65/71/65 71/77/71 72/78/72
f 68/74/68 67/73/67 73/79/73 74/80/74
f 69/75/69 68/74/68 74/80/74 75/81/75
f 70/76/70 69/75/69 75/81/75 76/82/76
f 71/77/71 70/76/70 76/82/76 77/83/77
f 72/78/72 71/77/71 77/83/77 78/84/78
f 74/80/74 73/79/73 79/85/79 80/86/80
f 75/81/75 74/80/74 80/86/80 81/87/81
f 76/82/76 75/81/75 81/87/81 82/88/82
f 77/83/77 76/82/76 82/88/82 83/89/83
f 78/84/78 77/83/77 83/89/83 84/90/84
f 80/86/80 79/85/79 85/91/85 86/92/86
f 81/87/81 80/86/80 86/92/86 87/93/87
f 82/88/82 81/87/81 87/93/87 88/94/88
f 83/89/83 82/88/82 88/94/88 89/95/89
f 84/90/84 83/89/83 89/95/89 90/96/90
f 61/67/61 31/31/31 57/62/57 91/97/91
f 91/97/91 57/62/57 58/63/58 92/98/92
f 92/98/92 58/63/58 59/64/59 93/99/93
f 93/99/93 59/64/59 60/65/60 94/100/94
f 94/100/94 60/65/60 36/66/36 66/101/66
f 67/73/67 61/67/61 91/97/91 95/102/95
f 95/102/95 91/97/91 92/98/92 96/103/96
f 96/103/96 92/98/92 93/99/93 97/104/97
f 97/104/97 93/99/93 94/100/94 98/105/98
f 98/105/98 94/100/94 66/101/66 72/106/72
f 73/79/73 67/73/67 95/102/95 99/107/99
f 99/107/99 95/102/95 96/103/96 100/108/100
f 100/108/100 96/103/96 97/104/97 101/109/101
f 101/109/101 97/104/97 98/105/98 102/110/102
f 102/110/102 98/105/98 72/106/72 78/111/78
f 79/85/79 73/79/73 99/107/99 103/112/103
f 103/112/103 99/107/99 100/108/100 104/113/104
f 104/113/104 100/108/100 101/109/101 105/114/105
f 105/114/105 101/109/101 102/110/102 106/115/106
f 106/115/106 102/110/102 78/111/78 84/116/84
f 85/91/85 79/85/79 103/112/103 107/117/107
f 107/117/107 103/112/103 104/113/104 108/118/108
f 108/118/108 104/113/104 105/114/105 109/119/109
f 109/119/109 105/114/105 106/115/106 110/120/110
f 110/120/110 106/115/106 84/116/84 90/121/90
f 112/123/112 111/122/111 117/128/117 118/129/118
f 113/124/113 112/123/112 118/129/118 119/130/119
f 114/125/114 113/124/113 119/130/119 120/131/120
f 115/126/115 114/125/114 120/131/120 121/132/121
f 116/127/116 115/126/115 121/132/121 122/133/122
f 118/129/118 117/128/117 123/134/123 124/135/124
f 119/130/119 118/129/118 124/135/124 125/136/125
f 120/131/120 119/130/119 125/136/125 126/137/126
f 121/132/121 120/131/120 126/137/126 127/138/127
f 122/133/122 121/132/121 127/138/127 128/139/128
f 124/135/124 123/134/123 129/140/129 130/141/130
f 125/136/125 124/135/124 130/141/130 131/142/131
f 126/137/126 125/136/125 131/142/131 132/143/132
f 127/138/127 126/137/126 132/143/132 133/144/133
f 128/139/128 127/138/127 133/144/133 134/145/134
f 130/141/130 129/140/129 135/146/135 136/147/136
f 131/142/131 130/141/130 136/147/136 137/148/137
f 132/143/132 131/142/131 137/148/137 138/149/138
f 133/144/133 132/143/132 138/149/138 139/150/139
f 134/145/134 133/144/133 139/150/139 140/151/140
f 136/147/136 135/146/135 141/152/141 142/153/142
f 137/148/137 136/147/136 142/153/142 143/154/143
f 138/149/138 137/148/137 143/154/143 144/155/144
f 139/150/139 138/149/138 144/155/144 145/156/145
f 140/151/140 139/150/139 145/156/145 146/157/146
f 117/163/117 111/158/111 147/159/147 151/164/151
f 151/164/151 147/159/147 148/160/148 152/165/152
f 152/165/152 148/160/148 149/161/149 153/166/153
f 153/166/153 149/161/149 150/162/150 154/167/154
f 154/167/154 150/162/150 116/127/116 122/133/122
f 123/168/123 117/163/117 151/164/151 155/169/155
f 155/169/155 151/164/151 152/165/152 156/170/156
f 156/170/156 152/165/152 153/166/153 157/171/157
f 157/171/157 153/166/153 154/167/154 158/172/158
f 158/172/158 154/167/154 122/133/122 128/139/128
f 129/173/129 123/168/123 155/169/155 159/174/159
f 159/174/159 155/169/155 156/170/156 160/175/160
f 160/175/160 156/170/156 157/171/157 161/176/161
f 161/176/161 157/171/157 158/172/158 162/177/162
f 162/177/162 158/172/158 128/139/128 134/145/134
f 135/178/135 129/173/129 159/174/159 163/179/163
f 163/179/163 159/174/159 160/175/160 164/180/164
f 164/180/164 160/175/160 161/176/161 165/181/165
f 165/181/165 161/176/161 162/177/162 166/182/166
f 166/182/166 162/177/162 134/145/134 140/151/140
f 141/183/141 135/178/135 163/179/163 167/184/167
f 167/184/167 163/179/163 164/180/164 168/185/168
f 168/185/168 164/180/164 165/181/165 169/186/169
f 169/186/169 165/181/165 166/182/166 170/187/170
f 170/187/170 166/182/166 140/151/140 146/157/146
f 142/153/142 141/152/141 171/188/171 172/189/172
f 143/154/143 142/153/142 172/189/172 173/190/173
f 144/155/144 143/154/143 173/190/173 174/191/174
f 145/156/145 144/155/144 174/191/174 175/192/175
f 146/157/146 145/156/145 175/192/175 176/193/176
f 172/189/172 171/188/171 177/194/177 178/195/178
f 173/190/173 172/189/172 178/195/178 179/196/179
f 174/191/174 173/190/173 179/196/179 180/197/180
f 175/192/175 174/191/174 180/197/180 181/198/181
f 176/193/176 175/192/175 181/198/181 182/199/182
f 178/195/178 177/194/177 183/200/183 184/201/184
f 179/196/179 178/195/178 184/201/184 185/202/185
f 180/197/180 179/196/179 185/202/185 186/203/186
f 181/198/181 180/197/180 186/203/186 187/204/187
f 182/199/182 181/198/181 187/204/187 188/205/188
f 184/201/184 183/200/183 189/206/189 190/207/190
f 185/202/185 184/201/184 190/207/190 191/208/191
f 186/203/186 185/202/185 191/208/191 192/209/192
f 187/204/187 186/203/186 192/209/192 193/210/193
f 188/205/188 187/204/187 193/210/193 194/211/194
f 190/207/190 189/206/189 195/212/195 196/213/196
f 191/208/191 190/207/190 196/213/196 197/214/197
f 192/209/192 191/208/191 197/214/197 198/215/198
f 193/210/193 192/209/192 198/215/198 199/216/199
f 194/211/194 193/210/193 199/216/199 200/217/200
f 171/218/171 141/183/141 167/184/167 201/219/201
f 201/219/201 167/184/167 168/185/168 202/220/202
f 202/220/202 168/185/168 169/186/169 203/221/203
f 203/221/203 169/186/169 170/187/170 204/222/204
f 204/222/204 170/187/170 146/157/146 176/193/176
f 177/223/177 171/218/171 201/219/201 205/224/205
f 205/224/205 201/219/201 202/220/202 206/225/206
f 206/225/206 202/220/202 203/221/203 207/226/207
f 207/226/207 203/221/203 204/222/204 208/227/208
f 208/227/208 204/222/204 176/193/176 182/199/182
f 183/228/183 177/223/177 205/224/205 209/229/209
f 209/229/209 205/224/205 206/225/206 210/230/210
f 210/230/210 206/225/206 207/226/207 211/231/211
f 211/231/211 207/226/207 208/227/208 212/232/212
f 212/232/212 208/227/208 182/199/182 188/205/188
f 189/233/189 183/228/183 209/229/209 213/234/213
f 213/234/213 209/229/209 210/230/210 214/235/214
f 214/235/214 210/230/210 211/231/211 215/236/215
f 215/236/215 211/231/211 212/232/212 216/237/216
f 216/237/216 212/232/212 188/205/188 194/211/194
f 195/238/195 189/233/189 213/234/213 217/239/217
f 217/239/217 213/234/213 214/235/214 218/240/218
f 218/240/218 214/235/214 215/236/215 219/241/219
f 219/241/219 215/236/215 216/237/216 220/242/220
f 220/242/220 216/237/216 194/211/194 200/217/200
f 221/243/221 222/244/222 223/245/223
f 221/243/221 223/245/223 224/246/224
f 221/243/221 224/246/224 225/247/225
f 221/243/221 225/247/225 226/248/226
f 221/243/221 226/248/226 227/249/227
f 223/245/223 222/244/222 228/250/228 229/251/229
f 224/246/224 223/245/223 229/251/229 230/252/230
f 225/247/225 224/246/224 230/252/230 231/253/231
f 226/248/226 225/247/225 231/253/231 232/254/232
f 227/249/227 226/248/226 232/254/232 233/255/233
f 229/251/229 228/250/228 234/256/234 235/257/235
f 230/252/230 229/251/229 235/257/235 236/258/236
f 231/253/231 230/252/230 236/258/236 237/259/237
f 232/254/232 231/253/231 237/259/237 238/260/238
f 233/255/233 232/254/232 238/260/238 239/261/239
f 235/257/235 234/256/234 240/262/240 241/263/241
f 236/258/236 235/257/235 241/263/241 242/264/242
f 237/259/237 236/258/236 242/264/242 243/265/243
f 238/260/238 237/259/237 243/265/243 244/266/244
f 239/261/239 238/260/238 244/266/244 245/267/245
f 241/263/241 240/262/240 246/268/246 247/269/247
f 242/264/242 241/263/241 247/269/247 248/270/248
f 243/265/243 242/264/242 248/270/248 249/271/249
f 244/266/244 243/265/243 249/271/249 250/272/250
f 245/267/245 244/266/244 250/272/250 251/273/251
f 221/243/221 227/249/227 252/274/252
f 221/243/221 252/274/252 253/275/253
f 221/243/221 253/275/253 254/276/254
f 221/243/221 254/276/254 255/277/255
f 221/243/221 255/277/255 256/278/256
f 252/274/252 227/249/227 233/255/233 257/279/257
f 253/275/253 252/274/252 257/279/257 258/280/258
f 254/276/254 253/275/253 258/280/258 259/281/259
f 255/277/255 254/276/254 259/281/259 260/282/260
f 256/278/256 255/277/255 260/282/260 261/283/261
f 257/279/257 233/255/233 239/261/239 262/284/262
f 258/280/258 257/279/257 262/284/262 263/285/263
f 259/281/259 258/280/258 263/285/263 264/286/264
f 260/282/260 259/281/259 264/286/264 265/287/265
f 261/283/261 260/282/260 265/287/265 266/288/266
f 262/284/262 239/261/239 245/267/245 267/289/267
f 263/285/263 262/284/262 267/289/267 268/290/268
f 264/286/264 263/285/263 268/290/268 269/291/269
f 265/287/265 264/286/264 269/291/269 270/292/270
f 266/288/266 265/287/265 270/292/270 271/293/271
f 267/289/267 245/267/245 251/273/251 272/294/272
f 268/290/268 267/289/267 272/294/272 273/295/273
f 269/291/269 268/290/268 273/295/273 274/296/274
f 270/292/270 269/291/269 274/296/274 275/297/275
f 271/293/271 270/292/270 275/297/275 276/298/276
f 277/299/277 221/243/221 278/300/278
f 278/300/278 221/243/221 279/301/279
f 279/301/279 221/243/221 280/302/280
f 280/302/280 221/243/221 281/303/281
f 281/303/281 221/243/221 256/278/256
f 282/304/282 277/299/277 278/300/278 283/305/283
f 283/305/283 278/300/278 279/301/279 284/306/284
f 284/306/284 279/301/279 280/302/280 285/307/285
f 285/307/285 280/302/280 281/303/281 286/308/286
f 286/308/286 281/303/281 256/278/256 261/283/261
f 287/309/287 282/304/282 283/305/283 288/310/288
f 288/310/288 283/305/283 284/306/284 289/311/289
f 289/311/289 284/306/284 285/307/285 290/312/290
f 290/312/290 285/307/285 286/308/286 291/313/291
f 291/313/291 286/308/286 261/283/261 266/288/266
f 292/314/292 287/309/287 288/310/288 293/315/293
f 293/315/293 288/310/288 289/311/289 294/316/294
f 294/316/294 289/311/289 290/312/290 295/317/295
f 295/317/295 290/312/290 291/313/291 296/318/296
f 296/318/296 291/313/291 266/288/266 271/293/271
f 297/319/297 292/314/292 293/315/293 298/320/298
f 298/320/298 293/315/293 294/316/294 299/321/299
f 299/321/299 294/316/294 295/317/295 300/322/300
f 300/322/300 295/317/295 296/318/296 301/323/301
f 301/323/301 296/318/296 271/293/271 276/298/276
f 222/244/222 221/243/221 302/324/302
f 302/324/302 221/243/221 303/325/303
f 303/325/303 221/243/221 304/326/304
f 304/326/304 221/243/221 305/327/305
f 305/327/305 221/243/221 277/299/277
f 228/250/228 222/244/222 302/324/302 306/328/306
f 306/328/306 302/324/302 303/325/303 307/329/307
f 307/329/307 303/325/303 304/326/304 308/330/308
f 308/330/308 304/326/304 305/327/305 309/331/309
f 309/331/309 305/327/305 277/299/277 282/304/282
f 234/256/234 228/250/228 306/328/306 310/332/310
f 310/332/310 306/328/306 307/329/307 311/333/311
f 311/333/311 307/329/307 308/330/308 312/334/312
f 312/334/312 308/330/308 309/331/309 313/335/313
f 313/335/313 309/331/309 282/304/282 287/309/287
f 240/262/240 234/256/234 310/332/310 314/336/314
f 314/336/314 310/332/310 311/333/311 315/337/315
f 315/337/315 311/333/311 312/334/312 316/338/316
f 316/338/316 312/334/312 313/335/313 317/339/317
f 317/339/317 313/335/313 287/309/287 292/314/292
f 246/268/246 240/262/240 314/336/314 318/340/318
f 318/340/318 314/336/314 315/337/315 319/341/319
f 319/341/319 315/337/315 316/338/316 320/342/320
f 320/342/320 316/338/316 317/339/317 321/343/321
f 321/343/321 317/339/317 292/314/292 297/319/297
f 247/345/247 246/344/246 322/350/322 323/351/323
f 248/346/248 247/345/247 323/351/323 324/352/324
f 249/347/249 248/346/248 324/352/324 325/353/325
f 250/348/250 249/347/249 325/353/325 326/354/326
f 251/349/251 250/348/250 326/354/326 327/355/327
f 323/351/323 322/350/322 328/356/328 329/357/329
f 324/352/324 323/351/323 329/357/329 330/358/330
f 325/353/325 324/352/324 330/358/330 331/359/331
f 326/354/326 325/353/325 331/359/331 332/360/332
f 327/355/327 326/354/326 332/360/332 333/361/333
f 329/357/329 328/356/328 334/362/334 335/363/335
f 330/358/330 329/357/329 335/363/335 336/364/336
f 331/359/331 330/358/330 336/364/336 337/365/337
f 332/360/332 331/359/331 337/365/337 338/366/338
f 333/361/333 332/360/332 338/366/338 339/367/339
f 335/363/335 334/362/334 340/368/340 341/369/341
f 336/364/336 335/363/335 341/369/341 342/370/342
f 337/365/337 336/364/336 342/370/342 343/371/343
f 338/366/338 337/365/337 343/371/343 344/372/344
f 339/367/339 338/366/338 344/372/344 345/373/345
f 341/369/341 340/368/340 346/374/346 347/375/347
f 342/370/342 341/369/341 347/375/347 348/376/348
f 343/371/343 342/370/342 348/376/348 349/377/349
f 344/372/344 343/371/343 349/377/349 350/378/350
f 345/373/345 344/372/344 350/378/350 351/379/351
f 272/380/272 251/349/251 327/355/327 352/385/352
f 273/381/273 272/380/272 352/385/352 353/386/353
f 274/382/274 273/381/273 353/386/353 354/387/354
f 275/383/275 274/382/274 354/387/354 355/388/355
f 276/384/276 275/383/275 355/388/355 356/389/356
f 352/385/352 327/355/327 333/361/333 357/390/357
f 353/386/353 352/385/352 357/390/357 358/391/358
f 354/387/354 353/386/353 358/391/358 359/392/359
f 355/388/355 354/387/354 359/392/359 360/393/360
f 356/389/356 355/388/355 360/393/360 361/394/361
f 357/390/357 333/361/333 339/367/339 362/395/362
f 358/391/358 357/390/357 362/395/362 363/396/363
f 359/392/359 358/391/358 363/396/363 364/397/364
f 360/393/360 359/392/359 364/397/364 365/398/365
f 361/394/361 360/393/360 365/398/365 366/399/366
f 362/395/362 339/367/339 345/373/345 367/400/367
f 363/396/363 362/395/362 367/400/367 368/401/368
f 364/397/364 363/396/363 368/401/368 369/402/369
f 365/398/365 364/397/364 369/402/369 370/403/370
f 366/399/366 365/398/365 370/403/370 371/404/371
f 367/400/367 345/373/345 351/379/351 372/405/372
f 368/401/368 367/400/367 372/405/372 373/406/373
f 369/402/369 368/401/368 373/406/373 374/407/374
f 370/403/370 369/402/369 374/407/374 375/408/375
f 371/404/371 370/403/370 375/408/375 376/409/376
f 377/415/377 297/410/297 298/411/298 378/416/378
f 378/416/378 298/411/298 299/412/299 379/417/379
f 379/417/379 299/412/299 300/413/300 380/418/380
f 380/418/380 300/413/300 301/414/301 381/419/381
f 381/419/381 301/414/301 276/384/276 356/389/356
f 382/420/382 377/415/377 378/416/378 383/421/383
f 383/421/383 378/416/378 379/417/379 384/422/384
f 384/422/384 379/417/379 380/418/380 385/423/385
f 385/423/385 380/418/380 381/419/381 386/424/386
f 386/424/386 381/419/381 356/389/356 361/394/361
f 387/425/387 382/420/382 383/421/383 388/426/388
f 388/426/388 383/421/383 384/422/384 389/427/389
f 389/427/389 384/422/384 385/423/385 390/428/390
f 390/428/390 385/423/385 386/424/386 391/429/391
f 391/429/391 386/424/386 361/394/361 366/399/366
f 392/430/392 387/425/387 388/426/388 393/431/393
f 393/431/393 388/426/388 389/427/389 394/432/394
f 394/432/394 389/427/389 390/428/390 395/433/395
f 395/433/395 390/428/390 391/429/391 396/434/396
f 396/434/396 391/429/391 366/399/366 371/404/371
f 397/435/397 392/430/392 393/431/393 398/436/398
f 398/436/398 393/431/393 394/432/394 399/437/399
f 399/437/399 394/432/394 395/433/395 400/438/400
f 400/438/400 395/433/395 396/434/396 401/439/401
f 401/439/401 396/434/396 371/404/371 376/409/376
f 322/350/322 246/344/246 318/440/318 402/444/402
f 402/444/402 318/440/318 319/441/319 403/445/403
f 403/445/403 319/441/319 320/442/320 404/446/404
f 404/446/404 320/442/320 321/443/321 405/447/405
f 405/447/405 321/443/321 297/410/297 377/415/377
f 328/356/328 322/350/322 402/444/402 406/448/406
f 406/448/406 402/444/402 403/445/403 407/449/407
f 407/449/407 403/445/403 404/446/404 408/450/408
f 408/450/408 404/446/404 405/447/405 409/451/409
f 409/451/409 405/447/405 377/415/377 382/420/382
f 334/362/334 328/356/328 406/448/406 410/452/410
f 410/452/410 406/448/406 407/449/407 411/453/411
f 411/453/411 407/449/407 408/450/408 412/454/412
f 412/454/412 408/450/408 409/451/409 413/455/413
f 413/455/413 409/451/409 382/420/382 387/425/387
f 340/368/340 334/362/334 410/452/410 414/456/414
f 414/456/414 410/452/410 411/453/411 415/457/415
f 415/457/415 411/453/411 412/454/412 416/458/416
f 416/458/416 412/454/412 413/455/413 417/459/417
f 417/459/417 413/455/413 387/425/387 392/430/392
f 346/374/346 340/368/340 414/456/414 418/460/418
f 418/460/418 414/456/414 415/457/415 419/461/419
f 419/461/419 415/457/415 416/458/416 420/462/420
f 420/462/420 416/458/416 417/459/417 421/463/421
f 421/463/421 417/459/417 392/430/392 397/435/397
f 423/465/423 422/464/422 428/470/428 429/471/429
f 424/466/424 423/465/423 429/471/429 430/472/430
f 425/467/425 424/466/424 430/472/430 431/473/431
f 426/468/426 425/467/425 431/473/431 432/474/432
f 427/469/427 426/468/426 432/474/432 433/475/433
f 429/471/429 428/470/428 434/476/434 435/477/435
f 430/472/430 429/471/429 435/477/435 436/478/436
f 431/473/431 430/472/430 436/478/436 437/479/437
f 432/474/432 431/473/431 437/479/437 438/480/438
f 433/475/433 432/474/432 438/480/438 439/481/439
f 435/477/435 434/476/434 440/482/440 441/483/441
f 436/478/436 435/477/435 441/483/441 442/484/442
f 437/479/437 436/478/436 442/484/442 443/485/443
f 438/480/438 437/479/437 443/485/443 444/486/444
f 439/481/439 438/480/438 444/486/444 445/487/445
f 441/483/441 440/482/440 446/488/446 447/489/447
f 442/484/442 441/483/441 447/489/447 448/490/448
f 443/485/443 442/484/442 448/490/448 449/491/449
f 444/486/444 443/485/443 449/491/449 450/492/450
f 445/487/445 444/486/444 450/492/450 451/493/451
f 447/489/447 446/488/446 452/494/452 453/495/453
f 448/490/448 447/489/447 453/495/453 454/496/454
f 449/491/449 448/490/448 454/496/454 455/497/455
f 450/492/450 449/491/449 455/497/455 456/498/456
f 451/493/451 450/492/450 456/498/456 457/499/457
f 458/500/458 427/469/427 433/475/433 463/505/463
f 459/501/459 458/500/458 463/505/463 464/506/464
f 460/502/460 459/501/459 464/506/464 465/507/465
f 461/503/461 460/502/460 465/507/465 466/508/466
f 462/504/462 461/503/461 466/508/466 467/509/467
f 463/505/463 433/475/433 439/481/439 468/510/468
f 464/506/464 463/505/463 468/510/468 469/511/469
f 465/507/465 464/506/464 469/511/469 470/512/470
f 466/508/466 465/507/465 470/512/470 471/513/471
f 467/509/467 466/508/466 471/513/471 472/514/472
f 468/510/468 439/481/439 445/487/445 473/515/473
f 469/511/469 468/510/468 473/515/473 474/516/474
f 470/512/470 469/511/469 474/516/474 475/517/475
f 471/513/471 470/512/470 475/517/475 476/518/476
f 472/514/472 471/513/471 476/518/476 477/519/477
f 473/515/473 445/487/445 451/493/451 478/520/478
f 474/516/474 473/515/473 478/520/478 479/521/479
f 475/517/475 474/516/474 479/521/479 480/522/480
f 476/518/476 475/517/475 480/522/480 481/523/481
f 477/519/477 476/518/476 481/523/481 482/524/482
f 478/520/478 451/493/451 457/499/457 483/525/483
f 479/521/479 478/520/478 483/525/483 484/526/484
f 480/522/480 479/521/479 484/526/484 485/527/485
f 481/523/481 480/522/480 485/527/485 486/528/486
f 482/524/482 481/523/481 486/528/486 487/529/487
f 493/535/493 488/530/488 489/531/489 494/536/494
f 494/536/494 489/531/489 490/532/490 495/537/495
f 495/537/495 490/532/490 491/533/491 496/538/496
f 496/538/496 491/533/491 492/534/492 497/539/497
f 497/539/497 492/534/492 462/504/462 467/509/467
f 498/540/498 493/535/493 494/536/494 499/541/499
f 499/541/499 494/536/494 495/537/495 500/542/500
f 500/542/500 495/537/495 496/538/496 501/543/501
f 501/543/501 496/538/496 497/539/497 502/544/502
f 502/544/502 497/539/497 467/509/467 472/514/472
f 503/545/503 498/540/498 499/541/499 504/546/504
f 504/546/504 499/541/499 500/542/500 505/547/505
f 505/547/505 500/542/500 501/543/501 506/548/506
f 506/548/506 501/543/501 502/544/502 507/549/507
f 507/549/507 502/544/502 472/514/472 477/519/477
f 508/550/508 503/545/503 504/546/504 509/551/509
f 509/551/509 504/546/504 505/547/505 510/552/510
f 510/552/510 505/547/505 506/548/506 511/553/511
f 511/553/511 506/548/506 507/549/507 512/554/512
f 512/554/512 507/549/507 477/519/477 482/524/482
f 513/555/513 508/550/508 509/551/509 514/556/514
f 514/556/514 509/551/509 510/552/510 515/557/515
f 515/557/515 510/552/510 511/553/511 516/558/516
f 516/558/516 511/553/511 512/554/512 517/559/517
f 517/559/517 512/554/512 482/524/482 487/529/487
f 428/565/428 422/560/422 518/561/518 522/566/522
f 522/566/522 518/561/518 519/562/519 523/567/523
f 523/567/523 519/562/519 520/563/520 524/568/524
f 524/568/524 520/563/520 521/564/521 525/569/525
f 525/569/525 521/564/521 488/530/488 493/535/493
f 434/570/434 428/565/428 522/566/522 526/571/526
f 526/571/526 522/566/522 523/567/523 527/572/527
f 527/572/527 523/567/523 524/568/524 528/573/528
f 528/573/528 524/568/524 525/569/525 529/574/529
f 529/574/529 525/569/525 493/535/493 498/540/498
f 440/575/440 434/570/434 526/571/526 530/576/530
f 530/576/530 526/571/526 527/572/527 531/577/531
f 531/577/531 527/572/527 528/573/528 532/578/532
f 532/578/532 528/573/528 529/574/529 533/579/533
f 533/579/533 529/574/529 498/540/498 503/545/503
f 446/580/446 440/575/440 530/576/530 534/581/534
f 534/581/534 530/576/530 531/577/531 535/582/535
f 535/582/535 531/577/531 532/578/532 536/583/536
f 536/583/536 532/578/532 533/579/533 537/584/537
f 537/584/537 533/579/533 503/545/503 508/550/508
f 452/585/452 446/580/446 534/581/534 538/586/538
f 538/586/538 534/581/534 535/582/535 539/587/539
f 539/587/539 535/582/535 536/583/536 540/588/540
f 540/588/540 536/583/536 537/584/537 541/589/541
f 541/589/541 537/584/537 508/550/508 513/555/513
f 453/495/453 452/494/452 542/590/542 543/591/543
f 454/496/454 453/495/453 543/591/543 544/592/544
f 455/497/455 454/496/454 544/592/544 545/593/545
f 456/498/456 455/497/455 545/593/545 546/594/546
f 457/499/457 456/498/456 546/594/546 547/595/547
f 543/591/543 542/590/542 548/596/548 549/597/549
f 544/592/544 543/591/543 549/597/549 550/598/550
f 545/593/545 544/592/544 550/598/550 551/599/551
f 546/594/546 545/593/545 551/599/551 552/600/552
f 547/595/547 546/594/546 552/600/552 553/601/553
f 549/597/549 548/596/548 554/602/554 555/603/555
f 550/598/550 549/597/549 555/603/555 556/604/556
f 551/599/551 550/598/550 556/604/556 557/605/557
f 552/600/552 551/599/551 557/605/557 558/606/558
f 553/601/553 552/600/552 558/606/558 559/607/559
f 555/603/555 554/602/554 560/608/560 561/609/561
f 556/604/556 555/603/555 561/609/561 562/610/562
f 557/605/557 556/604/556 562/610/562 563/611/563
f 558/606/558 557/605/557 563/611/563 564/612/564
f 559/607/559 558/606/558 564/612/564 565/613/565
f 561/609/561 560/608/560 566/614/566 567/615/567
f 562/610/562 561/609/561 567/615/567 568/616/568
f 563/611/563 562/610/562 568/616/568 569/617/569
f 564/612/564 563/611/563 569/617/569 570/618/570
f 565/613/565 564/612/564 570/618/570 571/619/571
f 483/525/483 457/499/457 547/595/547 572/620/572
f 484/526/484 483/525/483 572/620/572 573/621/573
f 485/527/485 484/526/484 573/621/573 574/622/574
f 486/528/486 485/527/485 574/622/574 575/623/575
f 487/529/487 486/528/486 575/623/575 576/624/576
f 572/620/572 547/595/547 553/601/553 577/625/577
f 573/621/573 572/620/572 577/625/577 578/626/578
f 574/622/574 573/621/573 578/626/578 579/627/579
f 575/623/575 574/622/574 579/627/579 580/628/580
f 576/624/576 575/623/575 580/628/580 581/629/581
f 577/625/577 553/601/553 559/607/559 582/630/582
f 578/626/578 577/625/577 582/630/582 583/631/583
f 579/627/579 578/626/578 583/631/583 584/632/584
f 580/628/580 579/627/579 584/632/584 585/633/585
f 581/629/581 580/628/580 585/633/585 586/634/586
f 582/630/582 559/607/559 565/613/565 587/635/587
f 583/631/583 582/630/582 587/635/587 588/636/588
f 584/632/584 583/631/583 588/636/588 589/637/589
f 585/633/585 584/632/584 589/637/589 590/638/590
f 586/634/586 585/633/585 590/638/590 591/639/591
f 587/635/587 565/613/565 571/619/571 592/640/592
f 588/636/588 587/635/587 592/640/592 593/641/593
f 589/637/589 588/636/588 593/641/593 594/642/594
f 590/638/590 589/637/589 594/642/594 595/643/595
f 591/639/591 590/638/590 595/643/595 596/644/596
f 597/645/597 513/555/513 514/556/514 598/646/598
f 598/646/598 514/556/514 515/557/515 599/647/599
f 599/647/599 515/557/515 516/558/516 600/648/600
f 600/648/600 516/558/516 517/559/517 601/649/601
f 601/649/601 517/559/517 487/529/487 576/624/576
f 602/650/602 597/645/597 598/646/598 603/651/603
f 603/651/603 598/646/598 599/647/599 604/652/604
f 604/652/604 599/647/599 600/648/600 605/653/605
f 605/653/605 600/648/600 601/649/601 606/654/606
f 606/654/606 601/649/601 576/624/576 581/629/581
f 607/655/607 602/650/602 603/651/603 608/656/608
f 608/656/608 603/651/603 604/652/604 609/657/609
f 609/657/609 604/652/604 605/653/605 610/658/610
f 610/658/610 605/653/605 606/654/606 611/659/611
f 611/659/611 606/654/606 581/629/581 586/634/586
f 612/660/612 607/655/607 608/656/608 613/661/613
f 613/661/613 608/656/608 609/657/609 614/662/614
f 614/662/614 609/657/609 610/658/610 615/663/615
f 615/663/615 610/658/610 611/659/611 616/664/616
f 616/664/616 611/659/611 586/634/586 591/639/591
f 617/665/617 612/660/612 613/661/613 618/666/618
f 618/666/618 613/661/613 614/662/614 619/667/619
f 619/667/619 614/662/614 615/663/615 620/668/620
f 620/668/620 615/663/615 616/664/616 621/669/621
f 621/669/621 616/664/616 591/639/591 596/644/596
f 542/670/542 452/585/452 538/586/538 622/671/622
f 622/671/622 538/586/538 539/587/539 623/672/623
f 623/672/623 539/587/539 540/588/540 624/673/624
f 624/673/624 540/588/540 541/589/541 625/674/625
f 625/674/625 541/589/541 513/555/513 597/645/597
f 548/675/548 542/670/542 622/671/622 626/676/626
f 626/676/626 622/671/622 623/672/623 627/677/627
f 627/677/627 623/672/623 624/673/624 628/678/628
f 628/678/628 624/673/624 625/674/625 629/679/629
f 629/679/629 625/674/625 597/645/597 602/650/602
f 554/680/554 548/675/548 626/676/626 630/681/630
f 630/681/630 626/676/626 627/677/627 631/682/631
f 631/682/631 627/677/627 628/678/628 632/683/632
f 632/683/632 628/678/628 629/679/629 633/684/633
f 633/684/633 629/679/629 602/650/602 607/655/607
f 560/685/560 554/680/554 630/681/630 634/686/634
f 634/686/634 630/681/630 631/682/631 635/687/635
f 635/687/635 631/682/631 632/683/632 636/688/636
f 636/688/636 632/683/632 633/684/633 637/689/637
f 637/689/637 633/684/633 607/655/607 612/660/612
f 566/690/566 560/685/560 634/686/634 638/691/638
f 638/691/638 634/686/634 635/687/635 639/692/639
f 639/692/639 635/687/635 636/688/636 640/693/640
f 640/693/640 636/688/636 637/689/637 641/694/641
f 641/694/641 637/689/637 612/660/612 617/665/617
f 567/615/567 566/614/566 642/695/642 643/696/643
f 568/616/568 567/615/567 643/696/643 644/697/644
f 569/617/569 568/616/568 644/697/644 645/698/645
f 570/618/570 569/617/569 645/698/645 646/699/646
f 571/619/571 570/618/570 646/699/646 647/700/647
f 643/696/643 642/695/642 648/701/648 649/702/649
f 644/697/644 643/696/643 649/702/649 650/703/650
f 645/698/645 644/697/644 650/703/650 651/704/651
f 646/699/646 645/698/645 651/704/651 652/705/652
f 647/700/647 646/699/646 652/705/652 653/706/653
f 649/702/649 648/701/648 654/707/654 655/708/655
f 650/703/650 649/702/649 655/708/655 656/709/656
f 651/704/651 650/703/650 656/709/656 657/710/657
f 652/705/652 651/704/651 657/710/657 658/711/658
f 653/706/653 652/705/652 658/711/658 659/712/659
f 655/708/655 654/707/654 660/713/660 661/714/661
f 656/709/656 655/708/655 661/714/661 662/715/662
f 657/710/657 656/709/656 662/715/662 663/716/663
f 658/711/658 657/710/657 663/716/663 664/717/664
f 659/712/659 658/711/658 664/717/664 665/718/665
f 661/714/661 660/713/660 666/719/666 667/720/667
f 662/715/662 661/714/661 667/720/667 668/721/668
f 663/716/663 662/715/662 668/721/668 669/722/669
f 664/717/664 663/716/663 669/722/669 670/723/670
f 665/718/665 664/717/664 670/723/670 671/724/671
f 592/640/592 571/619/571 647/700/647 672/725/672
f 593/641/593 592/640/592 672/725/672 673/726/673
f 594/642/594 593/641/593 673/726/673 674/727/674
f 595/643/595 594/642/594 674/727/674 675/728/675
f 596/644/596 595/643/595 675/728/675 676/729/676
f 672/725/672 647/700/647 653/706/653 677/730/677
f 673/726/673 672/725/672 677/730/677 678/731/678
f 674/727/674 673/726/673 678/731/678 679/732/679
f 675/728/675 674/727/674 679/732/679 680/733/680
f 676/729/676 675/728/675 680/733/680 681/734/681
f 677/730/677 653/706/653 659/712/659 682/735/682
f 678/731/678 677/730/677 682/735/682 683/736/683
f 679/732/679 678/731/678 683/736/683 684/737/684
f 680/733/680 679/732/679 684/737/684 685/738/685
f 681/734/681 680/733/680 685/738/685 686/739/686
f 682/735/682 659/712/659 665/718/665 687/740/687
f 683/736/683 682/735/682 687/740/687 688/741/688
f 684/737/684 683/736/683 688/741/688 689/742/689
f 685/738/685 684/737/684 689/742/689 690/743/690
f 686/739/686 685/738/685 690/743/690 691/744/691
f 687/740/687 665/718/665 671/724/671 692/745/692
f 688/741/688 687/740/687 692/745/692 693/746/693
f 689/742/689 688/741/688 693/746/693 694/747/694
f 690/743/690 689/742/689 694/747/694 695/748/695
f 691/744/691 690/743/690 695/748/695 696/749/696
f 697/750/697 617/665/617 618/666/618 698/751/698
f 698/751/698 618/666/618 619/667/619 699/752/699
f 699/752/699 619/667/619 620/668/620 700/753/700
f 700/753/700 620/668/620 621/669/621 701/754/701
f 701/754/701 621/669/621 596/644/596 676/729/676
f 702/755/702 697/750/697 698/751/698 703/756/703
f 703/756/703 698/751/698 699/752/699 704/757/704
f 704/757/704 699/752/699 700/753/700 705/758/705
f 705/758/705 700/753/700 701/754/701 706/759/706
f 706/759/706 701/754/701 676/729/676 681/734/681
f 707/760/707 702/755/702 703/756/703 708/761/708
f 708/761/708 703/756/703 704/757/704 709/762/709
f 709/762/709 704/757/704 705/758/705 710/763/710
f 710/763/710 705/758/705 706/759/706 711/764/711
f 711/764/711 706/759/706 681/734/681 686/739/686
f 712/765/712 707/760/707 708/761/708 713/766/713
f 713/766/713 708/761/708 709/762/709 714/767/714
f 714/767/714 709/762/709 710/763/710 715/768/715
f 715/768/715 710/763/710 711/764/711 716/769/716
f 716/769/716 711/764/711 686/739/686 691/744/691
f 717/770/717 712/765/712 713/766/713 718/771/718
f 718/771/718 713/766/713 714/767/714 719/772/719
f 719/772/719 714/767/714 715/768/715 720/773/720
f 720/773/720 715/768/715 716/769/716 721/774/721
f 721/774/721 716/769/716 691/744/691 696/749/696
f 642/775/642 566/690/566 638/691/638 722/776/722
f 722/776/722 638/691/638 639/692/639 723/777/723
f 723/777/723 639/692/639 640/693/640 724/778/724
f 724/778/724 640/693/640 641/694/641 725/779/725
f 725/779/725 641/694/641 617/665/617 697/750/697
f 648/780/648 642/775/642 722/776/722 726/781/726
f 726/781/726 722/776/722 723/777/723 727/782/727
f 727/782/727 723/777/723 724/778/724 728/783/728
f 728/783/728 724/778/724 725/779/725 729/784/729
f 729/784/729 725/779/725 697/750/697 702/755/702
f 654/785/654 648/780/648 726/781/726 730/786/730
f 730/786/730 726/781/726 727/782/727 731/787/731
f 731/787/731 727/782/727 728/783/728 732/788/732
f 732/788/732 728/783/728 729/784/729 733/789/733
f 733/789/733 729/784/729 702/755/702 707/760/707
f 660/790/660 654/785/654 730/786/730 734/791/734
f 734/791/734 730/786/730 731/787/731 735/792/735
f 735/792/735 731/787/731 732/788/732 736/793/736
f 736/793/736 732/788/732 733/789/733 737/794/737
f 737/794/737 733/789/733 707/760/707 712/765/712
f 666/795/666 660/790/660 734/791/734 738/796/738
f 738/796/738 734/791/734 735/792/735 739/797/739
f 739/797/739 735/792/735 736/793/736 740/798/740
f 740/798/740 736/793/736 737/794/737 741/799/741
f 741/799/741 737/794/737 712/765/712 717/770/717
